<?xml version="1.0" encoding="utf-8"?>
<!-- Generator: Adobe Illustrator 16.0.0, SVG Export Plug-In . SVG Version: 6.00 Build 0)  -->
<!DOCTYPE svg PUBLIC "-//W3C//DTD SVG 1.1//EN" "http://www.w3.org/Graphics/SVG/1.1/DTD/svg11.dtd">
<svg version="1.1" xmlns="http://www.w3.org/2000/svg" xmlns:xlink="http://www.w3.org/1999/xlink" x="0px" y="0px"
	 width="267.148px" height="402px" viewBox="0 0 267.148 402" enable-background="new 0 0 267.148 402" xml:space="preserve">
<g id="Layer_1">
	<g id="cositas" display="none">
		
			<path display="inline" fill="#FFFFFF" stroke="#404041" stroke-width="4" stroke-linecap="round" stroke-linejoin="round" stroke-miterlimit="10" d="
			M146.696-42.863c0-8.729,6.186-16.012,14.409-17.71v-104.42c0-11.526-9.344-20.87-20.869-20.87H20.695
			c-11.524,0-20.868,9.344-20.868,20.87V72.268c0,11.525,9.344,20.869,20.868,20.869h119.542c11.525,0,20.869-9.344,20.869-20.869
			v-97.421C152.881-26.851,146.696-34.133,146.696-42.863z"/>
		<path display="inline" fill="#EF5D81" d="M77.792,22.088l-4.387,3.063c-0.639,0.446-1.389,0.683-2.169,0.683
			c-0.779,0-1.529-0.236-2.169-0.683l-4.385-3.063H58.65c-5.81,0-10.532-4.726-10.532-10.534V-42.8
			c0-5.81,4.725-10.534,10.532-10.534h5.873c0.205,0,0.403,0.062,0.572,0.18l5.117,3.576c0.604,0.422,1.443,0.422,2.045,0
			l5.117-3.576c0.169-0.118,0.369-0.18,0.574-0.18h43.874v-72.29c0,0-82,0-82.867,0c-5.268,0-9.533,4.268-9.533,9.533V23.366
			c0,5.266,4.268,9.533,9.533,9.533c0.203,0,82.867,0,82.867,0V22.088H77.792z"/>
		
			<path display="inline" fill="#FFC85E" stroke="#FFFFFF" stroke-width="1.8007" stroke-linecap="round" stroke-linejoin="round" stroke-miterlimit="10" d="
			M131.507-52.333H77.951l-5.118,3.574c-0.479,0.336-1.037,0.502-1.597,0.502s-1.116-0.166-1.596-0.502l-5.117-3.574h-0.309
			c-1.053,0-4.697,0-5.564,0c-5.267,0-9.531,4.268-9.531,9.532v54.354c0,5.264,4.268,9.533,9.531,9.533c0.204,0,2.579,0,6.35,0
			l4.643,3.243c0.479,0.336,1.037,0.502,1.596,0.502c0.56,0,1.117-0.166,1.597-0.502l4.645-3.243c21.592,0,54.029,0,54.029,0
			L131.507-52.333L131.507-52.333z"/>
		<g display="inline">
			
				<polyline fill="none" stroke="#231F20" stroke-width="7" stroke-linecap="round" stroke-linejoin="round" stroke-miterlimit="10" points="
				93.361,-24.665 104.361,-13.941 93.361,-3.217 			"/>
		</g>
		<g display="inline">
			
				<path fill="#DDDDDC" stroke="#404041" stroke-width="4" stroke-linecap="round" stroke-linejoin="round" stroke-miterlimit="10" d="
				M333.41-185.863H213.869c-11.524,0-20.869,9.344-20.869,20.87V-60.49c-8.063,1.822-14.086,9.015-14.086,17.627
				c0,8.612,6.023,15.805,14.086,17.627v97.504c0,11.525,9.345,20.869,20.869,20.869H333.41c11.525,0,20.869-9.344,20.869-20.869
				v-237.261C354.28-176.519,344.937-185.863,333.41-185.863z"/>
		</g>
	</g>
	<g id="tab_13" display="none">
		<g display="inline">
			<path fill="#DDDDDC" d="M203.911-5H-42.631C-54.156-5-63.5,4.344-63.5,15.87v370.261c0,11.525,9.345,20.869,20.869,20.869
				h246.542c11.524,0,20.868-9.344,20.868-20.869V15.87C224.78,4.344,215.437-5,203.911-5z"/>
			<g>
				<rect x="-45.359" y="9" fill="#96E072" width="123" height="123"/>
				<rect x="-45.359" y="139" fill="#96E072" width="123" height="123"/>
			</g>
			<g>
				<path fill="#F26522" d="M59.233,69.401C58.83,58.38,54.401,48.412,47.362,40.886c-0.728-0.778-1.483-1.525-2.268-2.25
					c-7.521-6.954-17.441-11.308-28.396-11.693c-0.534-0.019-1.061-0.083-1.6-0.078c-0.539-0.002-1.062,0.061-1.599,0.083
					C2.55,27.351-7.364,31.724-14.87,38.69c-0.784,0.727-1.541,1.477-2.269,2.259c-7.024,7.531-11.432,17.51-11.819,28.533
					c-0.019,0.534-0.078,1.058-0.078,1.6c0.002,0.536,0.063,1.062,0.084,1.598c0.404,11.021,4.824,20.988,11.867,28.512
					c0.729,0.781,1.483,1.528,2.269,2.253c7.521,6.955,17.444,11.311,28.399,11.694c0.535,0.019,1.06,0.078,1.597,0.08
					c0.541,0,1.065-0.064,1.6-0.085c10.955-0.402,20.871-4.776,28.38-11.746c0.778-0.725,1.536-1.473,2.262-2.256
					c7.029-7.536,11.435-17.514,11.813-28.537c0.021-0.532,0.086-1.054,0.084-1.594C59.319,70.461,59.253,69.936,59.233,69.401z"/>
				<path fill="#C95722" d="M59.317,71.002c0.002-0.541-0.063-1.063-0.084-1.6l-24.026,0.02c0.403-11.048,4.989-21.041,12.28-28.397
					c-0.725-0.78-1.475-1.537-2.258-2.261c-7.867,7.932-12.815,18.729-13.217,30.664L16.735,69.44l-0.043-42.493
					c-0.53-0.021-1.053-0.084-1.592-0.083c-0.541,0-1.065,0.063-1.601,0.084l0.037,42.497l-15.274,0.013
					c-0.425-11.933-5.39-22.722-13.277-30.639c-0.776,0.727-1.524,1.485-2.25,2.268c7.302,7.34,11.908,17.326,12.33,28.376
					l-24.022,0.02c-0.021,0.536-0.084,1.062-0.078,1.602c-0.002,0.539,0.063,1.061,0.082,1.596l24.022-0.022
					C-5.33,83.708-9.92,93.706-17.209,101.055c0.726,0.783,1.478,1.539,2.258,2.268C-7.083,95.39-2.138,84.589-1.735,72.659
					l15.276-0.018l0.039,42.501c0.535,0.018,1.06,0.079,1.601,0.077c0.534-0.001,1.062-0.063,1.596-0.082l-0.039-42.496
					l15.275-0.017c0.426,11.933,5.393,22.724,13.276,30.645c0.78-0.729,1.526-1.484,2.252-2.269
					c-7.306-7.342-11.912-17.329-12.336-28.379l24.028-0.02C59.255,72.063,59.315,71.54,59.317,71.002z"/>
				
					<path fill="none" stroke="#231F20" stroke-width="2.5539" stroke-linecap="round" stroke-linejoin="round" stroke-miterlimit="10" d="
					M19.101,78.205c-0.004,2.125-1.729,3.845-3.854,3.843c-2.125-0.004-3.845-1.73-3.843-3.854"/>
				<circle fill="#231F20" cx="26.537" cy="64.729" r="4.065"/>
				<circle fill="#231F20" cx="5.123" cy="64.694" r="4.065"/>
			</g>
			<g>
				<rect x="84.641" y="9" fill="#96E072" width="123" height="123"/>
				<rect x="84.641" y="139" fill="#BBBDBF" width="123" height="123"/>
			</g>
			<g>
				<rect x="-45.359" y="269.807" fill="#96E072" width="123" height="123"/>
			</g>
			<g>
				<rect x="84.641" y="269.807" fill="#96E072" width="123" height="123"/>
			</g>
			<g>
				<path fill="#FFFFFF" d="M185.63,304.432c-1.483-0.332-2.957,0.604-3.289,2.086l-2.892,12.924l-12.57-14.148
					c-1.011-1.137-2.752-1.24-3.89-0.229c-1.139,1.012-1.239,2.752-0.229,3.889l7.736,8.709l-9.2,10.355l-9.199-10.355l7.735-8.709
					c1.011-1.137,0.908-2.879-0.229-3.889c-1.138-1.012-2.877-0.908-3.889,0.229l-7.303,8.221l-6.898-7.766
					c-1.011-1.139-2.751-1.24-3.89-0.23c-1.139,1.011-1.241,2.752-0.229,3.891l7.334,8.256l-9.2,10.354l-9.198-10.354l8.069-9.084
					c1.012-1.139,0.907-2.879-0.229-3.891c-1.138-1.012-2.879-0.906-3.89,0.229l-9.66,10.875c-0.008,0.009-0.014,0.015-0.021,0.021
					l-2.681,3.02l-2.754-12.313c-0.332-1.482-1.807-2.418-3.29-2.086s-2.419,1.807-2.087,3.289l12.15,54.318
					c0.287,1.281,1.426,2.152,2.687,2.152c0.199,0,0.401-0.021,0.604-0.066c1.483-0.332,2.419-1.805,2.087-3.289l-1.424-6.365
					l7.573,8.527c0.005,0.004,0.011,0.008,0.014,0.012c0.042,0.047,0.089,0.092,0.135,0.137c0.025,0.025,0.051,0.053,0.076,0.074
					c0.003,0.002,0.005,0.006,0.007,0.006c0.067,0.063,0.137,0.115,0.206,0.168c0.021,0.018,0.046,0.029,0.065,0.043
					c0.057,0.039,0.11,0.076,0.169,0.109c0.025,0.016,0.054,0.029,0.081,0.043c0.055,0.029,0.109,0.06,0.165,0.084
					c0.027,0.012,0.057,0.023,0.082,0.035c0.061,0.023,0.118,0.047,0.179,0.066c0.025,0.01,0.052,0.018,0.079,0.025
					c0.063,0.02,0.129,0.035,0.192,0.053c0.022,0.004,0.045,0.01,0.067,0.014c0.074,0.016,0.148,0.027,0.227,0.035
					c0.015,0.002,0.025,0.004,0.041,0.006c0.091,0.01,0.183,0.016,0.272,0.016c0.026,0,0.055-0.004,0.08-0.006
					c0.062,0,0.121-0.002,0.181-0.008c0.038-0.004,0.076-0.012,0.113-0.016c0.051-0.008,0.102-0.014,0.149-0.023
					c0.04-0.008,0.079-0.018,0.118-0.027c0.048-0.01,0.094-0.021,0.142-0.037c0.041-0.012,0.081-0.021,0.119-0.039
					c0.045-0.014,0.088-0.029,0.131-0.047c0.042-0.018,0.083-0.035,0.124-0.055c0.038-0.018,0.076-0.037,0.114-0.057
					c0.043-0.023,0.087-0.045,0.128-0.07c0.031-0.018,0.063-0.039,0.093-0.059c0.167-0.107,0.323-0.234,0.469-0.381
					c0.025-0.027,0.056-0.057,0.079-0.082c0.007-0.008,0.016-0.012,0.021-0.021l10.825-12.188L159.232,363
					c0.006,0.008,0.012,0.014,0.018,0.018c0.033,0.039,0.069,0.074,0.105,0.107c0.035,0.035,0.068,0.07,0.104,0.104
					c0.001,0,0.002,0,0.003,0c0.046,0.043,0.097,0.08,0.145,0.119c0.059,0.043,0.115,0.084,0.176,0.123
					c0.037,0.024,0.074,0.051,0.113,0.073c0.038,0.021,0.077,0.041,0.116,0.063c0.042,0.021,0.084,0.043,0.127,0.063
					c0.037,0.02,0.076,0.033,0.114,0.051c0.046,0.018,0.093,0.033,0.139,0.053c0.039,0.012,0.076,0.021,0.114,0.035
					c0.05,0.016,0.099,0.025,0.146,0.039c0.038,0.01,0.075,0.018,0.114,0.023c0.051,0.014,0.104,0.02,0.154,0.023
					c0.036,0.006,0.073,0.012,0.108,0.016c0.063,0.006,0.123,0.008,0.186,0.01c0.025,0.003,0.052,0.006,0.076,0.006
					c0.092,0,0.185-0.008,0.274-0.018c0.013,0,0.022-0.002,0.035-0.004c0.078-0.012,0.154-0.021,0.231-0.037
					c0.021-0.004,0.04-0.008,0.062-0.014c0.067-0.018,0.136-0.033,0.203-0.055c0.021-0.008,0.046-0.014,0.068-0.021
					c0.063-0.022,0.126-0.048,0.188-0.072c0.022-0.01,0.048-0.021,0.07-0.028c0.063-0.029,0.122-0.062,0.183-0.092
					c0.021-0.013,0.044-0.023,0.065-0.035c0.067-0.041,0.135-0.084,0.198-0.129c0.012-0.011,0.022-0.017,0.036-0.025
					c0.071-0.051,0.143-0.106,0.21-0.168c0.004-0.002,0.007-0.006,0.011-0.01c0.017-0.017,0.031-0.031,0.047-0.047
					c0.058-0.054,0.112-0.107,0.163-0.164c0.003-0.004,0.006-0.007,0.011-0.011l8.486-9.553l-1.653,7.391
					c-0.331,1.484,0.604,2.957,2.087,3.289c0.203,0.046,0.404,0.065,0.604,0.065c1.261,0,2.397-0.87,2.686-2.151l12.151-54.317
					C188.049,306.236,187.115,304.764,185.63,304.432z M177.967,326.068l-3.7,16.545l-9.285-10.45l9.2-10.354L177.967,326.068z
					 M123.103,342l-3.702-16.547l3.241-3.646l9.199,10.355L123.103,342z M135.526,336.309l9.199,10.355l-9.199,10.357l-9.198-10.357
					L135.526,336.309z M139.211,332.163l9.2-10.354l9.198,10.354l-9.198,10.354L139.211,332.163z M161.295,336.309l9.2,10.357
					l-9.199,10.355l-9.199-10.357L161.295,336.309z"/>
				<g>
					<path fill="#2B388F" d="M190.431,311.245h-83.355c-2.41,0-4.363-1.953-4.363-4.363c0-2.412,1.953-4.364,4.363-4.364h83.355
						c2.409,0,4.363,1.952,4.363,4.364C194.795,309.292,192.841,311.245,190.431,311.245z"/>
				</g>
			</g>
			<g>
				
					<path fill="none" stroke="#6D6E70" stroke-width="8.0001" stroke-linecap="round" stroke-linejoin="round" stroke-miterlimit="10" d="
					M125.558,209.518v-29.702c0-11.516,9.336-20.852,20.854-20.852l0,0c11.517,0,20.852,9.336,20.852,20.852v27.694"/>
				
					<path fill="#6D6E70" stroke="#6D6E70" stroke-width="4.308" stroke-linecap="round" stroke-linejoin="round" stroke-miterlimit="10" d="
					M118.2,192.269v21.816c0,15.578,12.631,28.207,28.21,28.207c15.577,0,28.207-12.629,28.207-28.207v-21.816H118.2z"/>
				<circle fill="#231F20" cx="146.409" cy="210.915" r="6.894"/>
				
					<line fill="none" stroke="#231F20" stroke-width="6.462" stroke-linecap="round" stroke-linejoin="round" stroke-miterlimit="10" x1="146.41" y1="211.893" x2="146.41" y2="225.443"/>
			</g>
		</g>
	</g>
	<g id="tab_13_1_" display="none">
		<g display="inline">
			<path fill="#6D6E70" d="M203.911-5H-42.631C-54.156-5-63.5,4.344-63.5,15.87v370.261c0,11.525,9.345,20.869,20.869,20.869
				h246.542c11.524,0,20.868-9.344,20.868-20.869V15.87C224.78,4.344,215.437-5,203.911-5z"/>
			<g>
				<rect x="-45.359" y="9" fill="#96E072" width="123" height="123"/>
				<rect x="-45.359" y="139" fill="#96E072" width="123" height="123"/>
			</g>
			<g>
				<path fill="#F26522" d="M59.233,69.401C58.83,58.38,54.401,48.412,47.362,40.886c-0.728-0.778-1.483-1.525-2.268-2.25
					c-7.521-6.954-17.441-11.308-28.396-11.693c-0.534-0.019-1.061-0.083-1.6-0.078c-0.539-0.002-1.062,0.061-1.599,0.083
					C2.55,27.351-7.364,31.724-14.87,38.69c-0.784,0.727-1.541,1.477-2.269,2.259c-7.024,7.531-11.432,17.51-11.819,28.533
					c-0.019,0.534-0.078,1.058-0.078,1.6c0.002,0.536,0.063,1.062,0.084,1.598c0.404,11.021,4.824,20.988,11.867,28.512
					c0.729,0.781,1.483,1.528,2.269,2.253c7.521,6.955,17.444,11.311,28.399,11.694c0.535,0.019,1.06,0.078,1.597,0.08
					c0.541,0,1.065-0.064,1.6-0.085c10.955-0.402,20.871-4.776,28.38-11.746c0.778-0.725,1.536-1.473,2.262-2.256
					c7.029-7.536,11.435-17.514,11.813-28.537c0.021-0.532,0.086-1.054,0.084-1.594C59.319,70.461,59.253,69.936,59.233,69.401z"/>
				<path fill="#C95722" d="M59.317,71.002c0.002-0.541-0.063-1.063-0.084-1.6l-24.026,0.02c0.403-11.048,4.989-21.041,12.28-28.397
					c-0.725-0.78-1.475-1.537-2.258-2.261c-7.867,7.932-12.815,18.729-13.217,30.664L16.735,69.44l-0.043-42.493
					c-0.53-0.021-1.053-0.084-1.592-0.083c-0.541,0-1.065,0.063-1.601,0.084l0.037,42.497l-15.274,0.013
					c-0.425-11.933-5.39-22.722-13.277-30.639c-0.776,0.727-1.524,1.485-2.25,2.268c7.302,7.34,11.908,17.326,12.33,28.376
					l-24.022,0.02c-0.021,0.536-0.084,1.062-0.078,1.602c-0.002,0.539,0.063,1.061,0.082,1.596l24.022-0.022
					C-5.33,83.708-9.92,93.706-17.209,101.055c0.726,0.783,1.478,1.539,2.258,2.268C-7.083,95.39-2.138,84.589-1.735,72.659
					l15.276-0.018l0.039,42.501c0.535,0.018,1.06,0.079,1.601,0.077c0.534-0.001,1.062-0.063,1.596-0.082l-0.039-42.496
					l15.275-0.017c0.426,11.933,5.393,22.724,13.276,30.645c0.78-0.729,1.526-1.484,2.252-2.269
					c-7.306-7.342-11.912-17.329-12.336-28.379l24.028-0.02C59.255,72.063,59.315,71.54,59.317,71.002z"/>
				
					<path fill="none" stroke="#231F20" stroke-width="2.5539" stroke-linecap="round" stroke-linejoin="round" stroke-miterlimit="10" d="
					M19.101,78.205c-0.004,2.125-1.729,3.845-3.854,3.843c-2.125-0.004-3.845-1.73-3.843-3.854"/>
				<circle fill="#231F20" cx="26.537" cy="64.729" r="4.065"/>
				<circle fill="#231F20" cx="5.123" cy="64.694" r="4.065"/>
			</g>
			<g>
				<rect x="84.641" y="9" fill="#96E072" width="123" height="123"/>
				<rect x="84.641" y="139" fill="#BBBDBF" width="123" height="123"/>
			</g>
			<g>
				<rect x="-45.359" y="269.807" fill="#96E072" width="123" height="123"/>
			</g>
			<g>
				<rect x="84.641" y="269.807" fill="#96E072" width="123" height="123"/>
			</g>
			<g>
				<path fill="#FFFFFF" d="M185.63,304.432c-1.483-0.332-2.957,0.604-3.289,2.086l-2.892,12.924l-12.57-14.148
					c-1.011-1.137-2.752-1.24-3.89-0.229c-1.139,1.012-1.239,2.752-0.229,3.889l7.736,8.709l-9.2,10.355l-9.199-10.355l7.735-8.709
					c1.011-1.137,0.908-2.879-0.229-3.889c-1.138-1.012-2.877-0.908-3.889,0.229l-7.303,8.221l-6.898-7.766
					c-1.011-1.139-2.751-1.24-3.89-0.23c-1.139,1.011-1.241,2.752-0.229,3.891l7.334,8.256l-9.2,10.354l-9.198-10.354l8.069-9.084
					c1.012-1.139,0.907-2.879-0.229-3.891c-1.138-1.012-2.879-0.906-3.89,0.229l-9.66,10.875c-0.008,0.009-0.014,0.015-0.021,0.021
					l-2.681,3.02l-2.754-12.313c-0.332-1.482-1.807-2.418-3.29-2.086s-2.419,1.807-2.087,3.289l12.15,54.318
					c0.287,1.281,1.426,2.152,2.687,2.152c0.199,0,0.401-0.021,0.604-0.066c1.483-0.332,2.419-1.805,2.087-3.289l-1.424-6.365
					l7.573,8.527c0.005,0.004,0.011,0.008,0.014,0.012c0.042,0.047,0.089,0.092,0.135,0.137c0.025,0.025,0.051,0.053,0.076,0.074
					c0.003,0.002,0.005,0.006,0.007,0.006c0.067,0.063,0.137,0.115,0.206,0.168c0.021,0.018,0.046,0.029,0.065,0.043
					c0.057,0.039,0.11,0.076,0.169,0.109c0.025,0.016,0.054,0.029,0.081,0.043c0.055,0.029,0.109,0.06,0.165,0.084
					c0.027,0.012,0.057,0.023,0.082,0.035c0.061,0.023,0.118,0.047,0.179,0.066c0.025,0.01,0.052,0.018,0.079,0.025
					c0.063,0.02,0.129,0.035,0.192,0.053c0.022,0.004,0.045,0.01,0.067,0.014c0.074,0.016,0.148,0.027,0.227,0.035
					c0.015,0.002,0.025,0.004,0.041,0.006c0.091,0.01,0.183,0.016,0.272,0.016c0.026,0,0.055-0.004,0.08-0.006
					c0.062,0,0.121-0.002,0.181-0.008c0.038-0.004,0.076-0.012,0.113-0.016c0.051-0.008,0.102-0.014,0.149-0.023
					c0.04-0.008,0.079-0.018,0.118-0.027c0.048-0.01,0.094-0.021,0.142-0.037c0.041-0.012,0.081-0.021,0.119-0.039
					c0.045-0.014,0.088-0.029,0.131-0.047c0.042-0.018,0.083-0.035,0.124-0.055c0.038-0.018,0.076-0.037,0.114-0.057
					c0.043-0.023,0.087-0.045,0.128-0.07c0.031-0.018,0.063-0.039,0.093-0.059c0.167-0.107,0.323-0.234,0.469-0.381
					c0.025-0.027,0.056-0.057,0.079-0.082c0.007-0.008,0.016-0.012,0.021-0.021l10.825-12.188L159.232,363
					c0.006,0.008,0.012,0.014,0.018,0.018c0.033,0.039,0.069,0.074,0.105,0.107c0.035,0.035,0.068,0.07,0.104,0.104
					c0.001,0,0.002,0,0.003,0c0.046,0.043,0.097,0.08,0.145,0.119c0.059,0.043,0.115,0.084,0.176,0.123
					c0.037,0.024,0.074,0.051,0.113,0.073c0.038,0.021,0.077,0.041,0.116,0.063c0.042,0.021,0.084,0.043,0.127,0.063
					c0.037,0.02,0.076,0.033,0.114,0.051c0.046,0.018,0.093,0.033,0.139,0.053c0.039,0.012,0.076,0.021,0.114,0.035
					c0.05,0.016,0.099,0.025,0.146,0.039c0.038,0.01,0.075,0.018,0.114,0.023c0.051,0.014,0.104,0.02,0.154,0.023
					c0.036,0.006,0.073,0.012,0.108,0.016c0.063,0.006,0.123,0.008,0.186,0.01c0.025,0.003,0.052,0.006,0.076,0.006
					c0.092,0,0.185-0.008,0.274-0.018c0.013,0,0.022-0.002,0.035-0.004c0.078-0.012,0.154-0.021,0.231-0.037
					c0.021-0.004,0.04-0.008,0.062-0.014c0.067-0.018,0.136-0.033,0.203-0.055c0.021-0.008,0.046-0.014,0.068-0.021
					c0.063-0.022,0.126-0.048,0.188-0.072c0.022-0.01,0.048-0.021,0.07-0.028c0.063-0.029,0.122-0.062,0.183-0.092
					c0.021-0.013,0.044-0.023,0.065-0.035c0.067-0.041,0.135-0.084,0.198-0.129c0.012-0.011,0.022-0.017,0.036-0.025
					c0.071-0.051,0.143-0.106,0.21-0.168c0.004-0.002,0.007-0.006,0.011-0.01c0.017-0.017,0.031-0.031,0.047-0.047
					c0.058-0.054,0.112-0.107,0.163-0.164c0.003-0.004,0.006-0.007,0.011-0.011l8.486-9.553l-1.653,7.391
					c-0.331,1.484,0.604,2.957,2.087,3.289c0.203,0.046,0.404,0.065,0.604,0.065c1.261,0,2.397-0.87,2.686-2.151l12.151-54.317
					C188.049,306.236,187.115,304.764,185.63,304.432z M177.967,326.068l-3.7,16.545l-9.285-10.45l9.2-10.354L177.967,326.068z
					 M123.103,342l-3.702-16.547l3.241-3.646l9.199,10.355L123.103,342z M135.526,336.309l9.199,10.355l-9.199,10.357l-9.198-10.357
					L135.526,336.309z M139.211,332.163l9.2-10.354l9.198,10.354l-9.198,10.354L139.211,332.163z M161.295,336.309l9.2,10.357
					l-9.199,10.355l-9.199-10.357L161.295,336.309z"/>
				<g>
					<path fill="#2B388F" d="M190.431,311.245h-83.355c-2.41,0-4.363-1.953-4.363-4.363c0-2.412,1.953-4.364,4.363-4.364h83.355
						c2.409,0,4.363,1.952,4.363,4.364C194.795,309.292,192.841,311.245,190.431,311.245z"/>
				</g>
			</g>
			<g>
				
					<path fill="none" stroke="#6D6E70" stroke-width="8.0001" stroke-linecap="round" stroke-linejoin="round" stroke-miterlimit="10" d="
					M125.558,209.518v-29.702c0-11.516,9.336-20.852,20.854-20.852l0,0c11.517,0,20.852,9.336,20.852,20.852v27.694"/>
				
					<path fill="#6D6E70" stroke="#6D6E70" stroke-width="4.308" stroke-linecap="round" stroke-linejoin="round" stroke-miterlimit="10" d="
					M118.2,192.269v21.816c0,15.578,12.631,28.207,28.21,28.207c15.577,0,28.207-12.629,28.207-28.207v-21.816H118.2z"/>
				<circle fill="#231F20" cx="146.409" cy="210.915" r="6.894"/>
				
					<line fill="none" stroke="#231F20" stroke-width="6.462" stroke-linecap="round" stroke-linejoin="round" stroke-miterlimit="10" x1="146.41" y1="211.893" x2="146.41" y2="225.443"/>
			</g>
		</g>
	</g>
	<g id="tab13" display="none">
		<g display="inline">
			<path fill="#FFFFFF" d="M203.911-5H-42.631C-54.156-5-63.5,4.344-63.5,15.87v370.261c0,11.525,9.345,20.869,20.869,20.869
				h246.542c11.524,0,20.868-9.344,20.868-20.869V15.87C224.78,4.344,215.437-5,203.911-5z"/>
			<g>
				<rect x="-45.359" y="9" fill="#96E072" width="123" height="123"/>
				<rect x="-45.359" y="139" fill="#96E072" width="123" height="123"/>
			</g>
			<g>
				<path fill="#F26522" d="M59.233,69.401C58.83,58.38,54.401,48.412,47.362,40.886c-0.728-0.778-1.483-1.525-2.268-2.25
					c-7.521-6.954-17.441-11.308-28.396-11.693c-0.534-0.019-1.061-0.083-1.6-0.078c-0.539-0.002-1.062,0.061-1.599,0.083
					C2.55,27.351-7.364,31.724-14.87,38.69c-0.784,0.727-1.541,1.477-2.269,2.259c-7.024,7.531-11.432,17.51-11.819,28.533
					c-0.019,0.534-0.078,1.058-0.078,1.6c0.002,0.536,0.063,1.062,0.084,1.598c0.404,11.021,4.824,20.988,11.867,28.512
					c0.729,0.781,1.483,1.528,2.269,2.253c7.521,6.955,17.444,11.311,28.399,11.694c0.535,0.019,1.06,0.078,1.597,0.08
					c0.541,0,1.065-0.064,1.6-0.085c10.955-0.402,20.871-4.776,28.38-11.746c0.778-0.725,1.536-1.473,2.262-2.256
					c7.029-7.536,11.435-17.514,11.813-28.537c0.021-0.532,0.086-1.054,0.084-1.594C59.319,70.461,59.253,69.936,59.233,69.401z"/>
				<path fill="#C95722" d="M59.317,71.002c0.002-0.541-0.063-1.063-0.084-1.6l-24.026,0.02c0.403-11.048,4.989-21.041,12.28-28.397
					c-0.725-0.78-1.475-1.537-2.258-2.261c-7.867,7.932-12.815,18.729-13.217,30.664L16.735,69.44l-0.043-42.493
					c-0.53-0.021-1.053-0.084-1.592-0.083c-0.541,0-1.065,0.063-1.601,0.084l0.037,42.497l-15.274,0.013
					c-0.425-11.933-5.39-22.722-13.277-30.639c-0.776,0.727-1.524,1.485-2.25,2.268c7.302,7.34,11.908,17.326,12.33,28.376
					l-24.022,0.02c-0.021,0.536-0.084,1.062-0.078,1.602c-0.002,0.539,0.063,1.061,0.082,1.596l24.022-0.022
					C-5.33,83.708-9.92,93.706-17.209,101.055c0.726,0.783,1.478,1.539,2.258,2.268C-7.083,95.39-2.138,84.589-1.735,72.659
					l15.276-0.018l0.039,42.501c0.535,0.018,1.06,0.079,1.601,0.077c0.534-0.001,1.062-0.063,1.596-0.082l-0.039-42.496
					l15.275-0.017c0.426,11.933,5.393,22.724,13.276,30.645c0.78-0.729,1.526-1.484,2.252-2.269
					c-7.306-7.342-11.912-17.329-12.336-28.379l24.028-0.02C59.255,72.063,59.315,71.54,59.317,71.002z"/>
				
					<path fill="none" stroke="#231F20" stroke-width="2.5539" stroke-linecap="round" stroke-linejoin="round" stroke-miterlimit="10" d="
					M19.101,78.205c-0.004,2.125-1.729,3.845-3.854,3.843c-2.125-0.004-3.845-1.73-3.843-3.854"/>
				<circle fill="#231F20" cx="26.537" cy="64.729" r="4.065"/>
				<circle fill="#231F20" cx="5.123" cy="64.694" r="4.065"/>
			</g>
			<g>
				<rect x="84.641" y="9" fill="#96E072" width="123" height="123"/>
				<rect x="84.641" y="139" fill="#BBBDBF" width="123" height="123"/>
			</g>
			<g>
				<rect x="-45.359" y="269.807" fill="#96E072" width="123" height="123"/>
			</g>
			<g>
				<rect x="84.641" y="269.807" fill="#96E072" width="123" height="123"/>
			</g>
			<g>
				<path fill="#FFFFFF" d="M185.63,304.432c-1.483-0.332-2.957,0.604-3.289,2.086l-2.892,12.924l-12.57-14.148
					c-1.011-1.137-2.752-1.24-3.89-0.229c-1.139,1.012-1.239,2.752-0.229,3.889l7.736,8.709l-9.2,10.355l-9.199-10.355l7.735-8.709
					c1.011-1.137,0.908-2.879-0.229-3.889c-1.138-1.012-2.877-0.908-3.889,0.229l-7.303,8.221l-6.898-7.766
					c-1.011-1.139-2.751-1.24-3.89-0.23c-1.139,1.011-1.241,2.752-0.229,3.891l7.334,8.256l-9.2,10.354l-9.198-10.354l8.069-9.084
					c1.012-1.139,0.907-2.879-0.229-3.891c-1.138-1.012-2.879-0.906-3.89,0.229l-9.66,10.875c-0.008,0.009-0.014,0.015-0.021,0.021
					l-2.681,3.02l-2.754-12.313c-0.332-1.482-1.807-2.418-3.29-2.086s-2.419,1.807-2.087,3.289l12.15,54.318
					c0.287,1.281,1.426,2.152,2.687,2.152c0.199,0,0.401-0.021,0.604-0.066c1.483-0.332,2.419-1.805,2.087-3.289l-1.424-6.365
					l7.573,8.527c0.005,0.004,0.011,0.008,0.014,0.012c0.042,0.047,0.089,0.092,0.135,0.137c0.025,0.025,0.051,0.053,0.076,0.074
					c0.003,0.002,0.005,0.006,0.007,0.006c0.067,0.063,0.137,0.115,0.206,0.168c0.021,0.018,0.046,0.029,0.065,0.043
					c0.057,0.039,0.11,0.076,0.169,0.109c0.025,0.016,0.054,0.029,0.081,0.043c0.055,0.029,0.109,0.06,0.165,0.084
					c0.027,0.012,0.057,0.023,0.082,0.035c0.061,0.023,0.118,0.047,0.179,0.066c0.025,0.01,0.052,0.018,0.079,0.025
					c0.063,0.02,0.129,0.035,0.192,0.053c0.022,0.004,0.045,0.01,0.067,0.014c0.074,0.016,0.148,0.027,0.227,0.035
					c0.015,0.002,0.025,0.004,0.041,0.006c0.091,0.01,0.183,0.016,0.272,0.016c0.026,0,0.055-0.004,0.08-0.006
					c0.062,0,0.121-0.002,0.181-0.008c0.038-0.004,0.076-0.012,0.113-0.016c0.051-0.008,0.102-0.014,0.149-0.023
					c0.04-0.008,0.079-0.018,0.118-0.027c0.048-0.01,0.094-0.021,0.142-0.037c0.041-0.012,0.081-0.021,0.119-0.039
					c0.045-0.014,0.088-0.029,0.131-0.047c0.042-0.018,0.083-0.035,0.124-0.055c0.038-0.018,0.076-0.037,0.114-0.057
					c0.043-0.023,0.087-0.045,0.128-0.07c0.031-0.018,0.063-0.039,0.093-0.059c0.167-0.107,0.323-0.234,0.469-0.381
					c0.025-0.027,0.056-0.057,0.079-0.082c0.007-0.008,0.016-0.012,0.021-0.021l10.825-12.188L159.232,363
					c0.006,0.008,0.012,0.014,0.018,0.018c0.033,0.039,0.069,0.074,0.105,0.107c0.035,0.035,0.068,0.07,0.104,0.104
					c0.001,0,0.002,0,0.003,0c0.046,0.043,0.097,0.08,0.145,0.119c0.059,0.043,0.115,0.084,0.176,0.123
					c0.037,0.024,0.074,0.051,0.113,0.073c0.038,0.021,0.077,0.041,0.116,0.063c0.042,0.021,0.084,0.043,0.127,0.063
					c0.037,0.02,0.076,0.033,0.114,0.051c0.046,0.018,0.093,0.033,0.139,0.053c0.039,0.012,0.076,0.021,0.114,0.035
					c0.05,0.016,0.099,0.025,0.146,0.039c0.038,0.01,0.075,0.018,0.114,0.023c0.051,0.014,0.104,0.02,0.154,0.023
					c0.036,0.006,0.073,0.012,0.108,0.016c0.063,0.006,0.123,0.008,0.186,0.01c0.025,0.003,0.052,0.006,0.076,0.006
					c0.092,0,0.185-0.008,0.274-0.018c0.013,0,0.022-0.002,0.035-0.004c0.078-0.012,0.154-0.021,0.231-0.037
					c0.021-0.004,0.04-0.008,0.062-0.014c0.067-0.018,0.136-0.033,0.203-0.055c0.021-0.008,0.046-0.014,0.068-0.021
					c0.063-0.022,0.126-0.048,0.188-0.072c0.022-0.01,0.048-0.021,0.07-0.028c0.063-0.029,0.122-0.062,0.183-0.092
					c0.021-0.013,0.044-0.023,0.065-0.035c0.067-0.041,0.135-0.084,0.198-0.129c0.012-0.011,0.022-0.017,0.036-0.025
					c0.071-0.051,0.143-0.106,0.21-0.168c0.004-0.002,0.007-0.006,0.011-0.01c0.017-0.017,0.031-0.031,0.047-0.047
					c0.058-0.054,0.112-0.107,0.163-0.164c0.003-0.004,0.006-0.007,0.011-0.011l8.486-9.553l-1.653,7.391
					c-0.331,1.484,0.604,2.957,2.087,3.289c0.203,0.046,0.404,0.065,0.604,0.065c1.261,0,2.397-0.87,2.686-2.151l12.151-54.317
					C188.049,306.236,187.115,304.764,185.63,304.432z M177.967,326.068l-3.7,16.545l-9.285-10.45l9.2-10.354L177.967,326.068z
					 M123.103,342l-3.702-16.547l3.241-3.646l9.199,10.355L123.103,342z M135.526,336.309l9.199,10.355l-9.199,10.357l-9.198-10.357
					L135.526,336.309z M139.211,332.163l9.2-10.354l9.198,10.354l-9.198,10.354L139.211,332.163z M161.295,336.309l9.2,10.357
					l-9.199,10.355l-9.199-10.357L161.295,336.309z"/>
				<g>
					<path fill="#2B388F" d="M190.431,311.245h-83.355c-2.41,0-4.363-1.953-4.363-4.363c0-2.412,1.953-4.364,4.363-4.364h83.355
						c2.409,0,4.363,1.952,4.363,4.364C194.795,309.292,192.841,311.245,190.431,311.245z"/>
				</g>
			</g>
			<g>
				
					<path fill="none" stroke="#6D6E70" stroke-width="8.0001" stroke-linecap="round" stroke-linejoin="round" stroke-miterlimit="10" d="
					M125.558,209.518v-29.702c0-11.516,9.336-20.852,20.854-20.852l0,0c11.517,0,20.852,9.336,20.852,20.852v27.694"/>
				
					<path fill="#6D6E70" stroke="#6D6E70" stroke-width="4.308" stroke-linecap="round" stroke-linejoin="round" stroke-miterlimit="10" d="
					M118.2,192.269v21.816c0,15.578,12.631,28.207,28.21,28.207c15.577,0,28.207-12.629,28.207-28.207v-21.816H118.2z"/>
				<circle fill="#231F20" cx="146.409" cy="210.915" r="6.894"/>
				
					<line fill="none" stroke="#231F20" stroke-width="6.462" stroke-linecap="round" stroke-linejoin="round" stroke-miterlimit="10" x1="146.41" y1="211.893" x2="146.41" y2="225.443"/>
			</g>
		</g>
	</g>
	<g id="prog_b_1_" display="none">
		<g id="modif_1_" display="inline">
			<path fill="#FFFFFF" d="M197.28,20.87C197.28,9.344,187.937,0,176.411,0H20.869C9.344,0,0,9.344,0,20.87v360.261
				C0,392.657,9.344,402,20.869,402h155.542c11.524,0,20.868-9.344,20.868-20.869L197.28,20.87L197.28,20.87z"/>
			<g>
				<path fill="#EF5D81" d="M77.967,343.167l-4.386,3.063c-0.64,0.443-1.39,0.682-2.169,0.682c-0.78,0-1.531-0.236-2.169-0.682
					l-4.387-3.063h-6.03c-5.811,0-10.534-4.728-10.534-10.535V130.848c0-5.81,4.726-10.534,10.534-10.534h5.873
					c0.204,0,0.402,0.063,0.571,0.181l5.118,3.575c0.603,0.422,1.441,0.422,2.045,0l5.116-3.575c0.17-0.118,0.369-0.181,0.574-0.181
					H122v-72.29c0,0-82,0-82.867,0c-5.267,0-9.532,4.268-9.532,9.533v286.886c0,5.267,4.268,9.533,9.532,9.533
					c0.203,0,82.867,0,82.867,0v-10.812L77.967,343.167L77.967,343.167z"/>
				
					<path fill="#FFC85E" stroke="#FFFFFF" stroke-width="1.8007" stroke-linecap="round" stroke-linejoin="round" stroke-miterlimit="10" d="
					M131.682,121.315H78.126l-5.118,3.575c-0.479,0.336-1.037,0.502-1.596,0.502c-0.56,0-1.117-0.166-1.598-0.502l-5.115-3.575
					H64.39c-1.054,0-4.698,0-5.564,0c-5.267,0-9.533,4.268-9.533,9.532v54.355c0,5.264,4.269,9.532,9.533,9.532
					c0.203,0,2.577,0,6.348,0l4.643,3.243c0.479,0.336,1.038,0.502,1.598,0.502c0.559,0,1.115-0.166,1.596-0.502l4.645-3.243
					c21.592,0,54.03,0,54.03,0L131.682,121.315L131.682,121.315z"/>
				
					<polygon fill="#231F20" stroke="#231F20" stroke-width="5.0061" stroke-linecap="round" stroke-linejoin="round" stroke-miterlimit="10" points="
					71.397,72.649 93.558,85.443 71.397,98.238 				"/>
				
					<path fill="#FFC85E" stroke="#FFFFFF" stroke-width="1.8007" stroke-linecap="round" stroke-linejoin="round" stroke-miterlimit="10" d="
					M131.682,194.845H78.126l-5.118,3.575c-0.479,0.335-1.037,0.502-1.596,0.502c-0.56,0-1.117-0.167-1.598-0.502l-5.115-3.575
					H64.39c-1.054,0-4.698,0-5.564,0c-5.267,0-9.533,4.27-9.533,9.533v54.354c0,5.264,4.269,9.533,9.533,9.533
					c0.203,0,2.577,0,6.348,0l4.643,3.242c0.479,0.336,1.038,0.502,1.598,0.502c0.559,0,1.115-0.166,1.596-0.502l4.645-3.242
					c21.592,0,54.03,0,54.03,0L131.682,194.845L131.682,194.845z"/>
				<g>
					
						<line fill="none" stroke="#231F20" stroke-width="7" stroke-linecap="round" stroke-linejoin="round" stroke-miterlimit="10" x1="80.707" y1="159.707" x2="103.39" y2="159.707"/>
					
						<polyline fill="none" stroke="#231F20" stroke-width="7" stroke-linecap="round" stroke-linejoin="round" stroke-miterlimit="10" points="
						93.535,148.984 104.535,159.707 93.535,170.432 					"/>
				</g>
				<g>
					
						<line fill="none" stroke="#231F20" stroke-width="7" stroke-linecap="round" stroke-linejoin="round" stroke-miterlimit="10" x1="92.622" y1="220.793" x2="92.622" y2="243.475"/>
					
						<polyline fill="none" stroke="#231F20" stroke-width="7" stroke-linecap="round" stroke-linejoin="round" stroke-miterlimit="10" points="
						103.345,233.622 92.622,244.622 81.897,233.622 					"/>
				</g>
				
					<path fill="#FFC85E" stroke="#FFFFFF" stroke-width="1.8007" stroke-linecap="round" stroke-linejoin="round" stroke-miterlimit="10" d="
					M131.682,268.844H78.126l-5.118,3.576c-0.479,0.334-1.037,0.502-1.596,0.502c-0.56,0-1.117-0.168-1.598-0.502l-5.115-3.576
					H64.39c-1.054,0-4.698,0-5.564,0c-5.267,0-9.533,4.268-9.533,9.533v54.354c0,5.266,4.269,9.533,9.533,9.533
					c0.203,0,2.577,0,6.348,0l4.643,3.244c0.479,0.336,1.038,0.502,1.598,0.502c0.559,0,1.115-0.166,1.596-0.502l4.645-3.244
					c21.592,0,54.03,0,54.03,0L131.682,268.844L131.682,268.844z"/>
				<g>
					
						<line fill="none" stroke="#231F20" stroke-width="7" stroke-linecap="round" stroke-linejoin="round" stroke-miterlimit="10" x1="92.624" y1="294.793" x2="92.624" y2="317.475"/>
					
						<polyline fill="none" stroke="#231F20" stroke-width="7" stroke-linecap="round" stroke-linejoin="round" stroke-miterlimit="10" points="
						103.347,307.622 92.624,318.622 81.899,307.622 					"/>
				</g>
			</g>
		</g>
		<g display="inline">
			<path fill="#FFFFFF" d="M197.28,20.87C197.28,9.344,187.937,0,176.411,0H20.869C9.344,0,0,9.344,0,20.87v360.261
				C0,392.657,9.344,402,20.869,402h155.542c11.524,0,20.868-9.344,20.868-20.869L197.28,20.87L197.28,20.87z"/>
			<g>
				<path fill="#EF5D81" d="M77.967,343.167l-4.386,3.063c-0.64,0.443-1.39,0.682-2.169,0.682c-0.78,0-1.531-0.236-2.169-0.682
					l-4.387-3.063h-6.03c-5.811,0-10.534-4.728-10.534-10.535V130.848c0-5.81,4.726-10.534,10.534-10.534h5.873
					c0.204,0,0.402,0.063,0.571,0.181l5.118,3.575c0.603,0.422,1.441,0.422,2.045,0l5.116-3.575c0.17-0.118,0.369-0.181,0.574-0.181
					H122v-72.29c0,0-82,0-82.867,0c-5.267,0-9.532,4.268-9.532,9.533v286.886c0,5.267,4.268,9.533,9.532,9.533
					c0.203,0,82.867,0,82.867,0v-10.812L77.967,343.167L77.967,343.167z"/>
				
					<path fill="#FFC85E" stroke="#FFFFFF" stroke-width="1.8007" stroke-linecap="round" stroke-linejoin="round" stroke-miterlimit="10" d="
					M131.682,121.315H78.126l-5.118,3.575c-0.479,0.336-1.037,0.502-1.596,0.502c-0.56,0-1.117-0.166-1.598-0.502l-5.115-3.575
					H64.39c-1.054,0-4.698,0-5.564,0c-5.267,0-9.533,4.268-9.533,9.532v54.355c0,5.264,4.269,9.532,9.533,9.532
					c0.203,0,2.577,0,6.348,0l4.643,3.243c0.479,0.336,1.038,0.502,1.598,0.502c0.559,0,1.115-0.166,1.596-0.502l4.645-3.243
					c21.592,0,54.03,0,54.03,0L131.682,121.315L131.682,121.315z"/>
				
					<polygon fill="#231F20" stroke="#231F20" stroke-width="5.0061" stroke-linecap="round" stroke-linejoin="round" stroke-miterlimit="10" points="
					71.397,72.649 93.558,85.443 71.397,98.238 				"/>
				
					<path fill="#FFC85E" stroke="#FFFFFF" stroke-width="1.8007" stroke-linecap="round" stroke-linejoin="round" stroke-miterlimit="10" d="
					M131.682,194.845H78.126l-5.118,3.575c-0.479,0.335-1.037,0.502-1.596,0.502c-0.56,0-1.117-0.167-1.598-0.502l-5.115-3.575
					H64.39c-1.054,0-4.698,0-5.564,0c-5.267,0-9.533,4.27-9.533,9.533v54.354c0,5.264,4.269,9.533,9.533,9.533
					c0.203,0,2.577,0,6.348,0l4.643,3.242c0.479,0.336,1.038,0.502,1.598,0.502c0.559,0,1.115-0.166,1.596-0.502l4.645-3.242
					c21.592,0,54.03,0,54.03,0L131.682,194.845L131.682,194.845z"/>
				<g>
					
						<line fill="none" stroke="#231F20" stroke-width="7" stroke-linecap="round" stroke-linejoin="round" stroke-miterlimit="10" x1="80.707" y1="159.707" x2="103.39" y2="159.707"/>
					
						<polyline fill="none" stroke="#231F20" stroke-width="7" stroke-linecap="round" stroke-linejoin="round" stroke-miterlimit="10" points="
						93.535,148.984 104.535,159.707 93.535,170.432 					"/>
				</g>
				<g>
					
						<line fill="none" stroke="#231F20" stroke-width="7" stroke-linecap="round" stroke-linejoin="round" stroke-miterlimit="10" x1="92.622" y1="220.793" x2="92.622" y2="243.475"/>
					
						<polyline fill="none" stroke="#231F20" stroke-width="7" stroke-linecap="round" stroke-linejoin="round" stroke-miterlimit="10" points="
						103.345,233.622 92.622,244.622 81.897,233.622 					"/>
				</g>
				
					<path fill="#FFC85E" stroke="#FFFFFF" stroke-width="1.8007" stroke-linecap="round" stroke-linejoin="round" stroke-miterlimit="10" d="
					M131.682,268.844H78.126l-5.118,3.576c-0.479,0.334-1.037,0.502-1.596,0.502c-0.56,0-1.117-0.168-1.598-0.502l-5.115-3.576
					H64.39c-1.054,0-4.698,0-5.564,0c-5.267,0-9.533,4.268-9.533,9.533v54.354c0,5.266,4.269,9.533,9.533,9.533
					c0.203,0,2.577,0,6.348,0l4.643,3.244c0.479,0.336,1.038,0.502,1.598,0.502c0.559,0,1.115-0.166,1.596-0.502l4.645-3.244
					c21.592,0,54.03,0,54.03,0L131.682,268.844L131.682,268.844z"/>
				<g>
					
						<line fill="none" stroke="#231F20" stroke-width="7" stroke-linecap="round" stroke-linejoin="round" stroke-miterlimit="10" x1="92.624" y1="294.793" x2="92.624" y2="317.475"/>
					
						<polyline fill="none" stroke="#231F20" stroke-width="7" stroke-linecap="round" stroke-linejoin="round" stroke-miterlimit="10" points="
						103.347,307.622 92.624,318.622 81.899,307.622 					"/>
				</g>
			</g>
		</g>
	</g>
	<g display="none">
		<path display="inline" fill="#FFFFFF" d="M161.28,20.87C161.28,9.344,151.937,0,140.411,0H20.869C9.344,0,0,9.344,0,20.87v360.261
			C0,392.657,9.344,402,20.869,402h119.542c11.524,0,20.868-9.344,20.868-20.869L161.28,20.87L161.28,20.87z"/>
		<g display="inline">
			<path fill="#EF5D81" d="M77.967,343.167l-4.386,3.063c-0.64,0.443-1.39,0.682-2.169,0.682c-0.78,0-1.531-0.236-2.169-0.682
				l-4.387-3.063h-6.03c-5.811,0-10.534-4.728-10.534-10.535V130.848c0-5.81,4.726-10.534,10.534-10.534h5.873
				c0.204,0,0.402,0.063,0.571,0.181l5.118,3.575c0.603,0.422,1.441,0.422,2.045,0l5.116-3.575c0.17-0.118,0.369-0.181,0.574-0.181
				H122v-72.29c0,0-82,0-82.867,0c-5.267,0-9.532,4.268-9.532,9.533v286.886c0,5.267,4.268,9.533,9.532,9.533
				c0.203,0,82.867,0,82.867,0v-10.812L77.967,343.167L77.967,343.167z"/>
			
				<path fill="#FFC85E" stroke="#FFFFFF" stroke-width="1.8007" stroke-linecap="round" stroke-linejoin="round" stroke-miterlimit="10" d="
				M131.682,121.315H78.126l-5.118,3.575c-0.479,0.336-1.037,0.502-1.596,0.502c-0.56,0-1.117-0.166-1.598-0.502l-5.115-3.575H64.39
				c-1.054,0-4.698,0-5.564,0c-5.267,0-9.533,4.268-9.533,9.532v54.355c0,5.264,4.269,9.532,9.533,9.532c0.203,0,2.577,0,6.348,0
				l4.643,3.243c0.479,0.336,1.038,0.502,1.598,0.502c0.559,0,1.115-0.166,1.596-0.502l4.645-3.243c21.592,0,54.03,0,54.03,0
				L131.682,121.315L131.682,121.315z"/>
			
				<polygon fill="#231F20" stroke="#231F20" stroke-width="5.0061" stroke-linecap="round" stroke-linejoin="round" stroke-miterlimit="10" points="
				71.397,72.649 93.558,85.443 71.397,98.238 			"/>
			
				<path fill="#FFC85E" stroke="#FFFFFF" stroke-width="1.8007" stroke-linecap="round" stroke-linejoin="round" stroke-miterlimit="10" d="
				M131.682,194.845H78.126l-5.118,3.575c-0.479,0.335-1.037,0.502-1.596,0.502c-0.56,0-1.117-0.167-1.598-0.502l-5.115-3.575H64.39
				c-1.054,0-4.698,0-5.564,0c-5.267,0-9.533,4.27-9.533,9.533v54.354c0,5.264,4.269,9.533,9.533,9.533c0.203,0,2.577,0,6.348,0
				l4.643,3.242c0.479,0.336,1.038,0.502,1.598,0.502c0.559,0,1.115-0.166,1.596-0.502l4.645-3.242c21.592,0,54.03,0,54.03,0
				L131.682,194.845L131.682,194.845z"/>
			<g>
				
					<line fill="none" stroke="#231F20" stroke-width="7" stroke-linecap="round" stroke-linejoin="round" stroke-miterlimit="10" x1="92.622" y1="147.794" x2="92.622" y2="170.477"/>
				
					<polyline fill="none" stroke="#231F20" stroke-width="7" stroke-linecap="round" stroke-linejoin="round" stroke-miterlimit="10" points="
					103.345,160.622 92.622,171.622 81.897,160.622 				"/>
			</g>
			<g>
				
					<line fill="none" stroke="#231F20" stroke-width="7" stroke-linecap="round" stroke-linejoin="round" stroke-miterlimit="10" x1="92.621" y1="220.793" x2="92.621" y2="243.475"/>
				
					<polyline fill="none" stroke="#231F20" stroke-width="7" stroke-linecap="round" stroke-linejoin="round" stroke-miterlimit="10" points="
					103.345,233.622 92.621,244.622 81.897,233.622 				"/>
			</g>
			
				<path fill="#FFC85E" stroke="#FFFFFF" stroke-width="1.8007" stroke-linecap="round" stroke-linejoin="round" stroke-miterlimit="10" d="
				M131.682,268.844H78.126l-5.118,3.576c-0.479,0.334-1.037,0.502-1.596,0.502c-0.56,0-1.117-0.168-1.598-0.502l-5.115-3.576H64.39
				c-1.054,0-4.698,0-5.564,0c-5.267,0-9.533,4.268-9.533,9.533v54.354c0,5.266,4.269,9.533,9.533,9.533c0.203,0,2.577,0,6.348,0
				l4.643,3.244c0.479,0.336,1.038,0.502,1.598,0.502c0.559,0,1.115-0.166,1.596-0.502l4.645-3.244c21.592,0,54.03,0,54.03,0
				L131.682,268.844L131.682,268.844z"/>
			<g>
				
					<line fill="none" stroke="#231F20" stroke-width="7" stroke-linecap="round" stroke-linejoin="round" stroke-miterlimit="10" x1="80.707" y1="306.708" x2="103.39" y2="306.708"/>
				
					<polyline fill="none" stroke="#231F20" stroke-width="7" stroke-linecap="round" stroke-linejoin="round" stroke-miterlimit="10" points="
					93.535,295.984 104.535,306.708 93.535,317.432 				"/>
			</g>
		</g>
	</g>
	<path fill="#FFFFFF" d="M267.148,20.87C267.148,9.344,257.805,0,246.28,0H20.869C9.344,0,0,9.344,0,20.87v360.261
		C0,392.657,9.344,402,20.869,402h225.41c11.524,0,20.868-9.344,20.868-20.869L267.148,20.87L267.148,20.87z"/>
	<g id="prog_b" display="none">
		<g display="inline">
			<path fill="#FFFFFF" d="M161.28,82.37c0-11.526-9.344-20.87-20.868-20.87H20.869C9.344,61.5,0,70.844,0,82.37v237.261
				C0,331.157,9.344,340.5,20.869,340.5h119.542c11.524,0,20.868-9.344,20.868-20.869L161.28,82.37L161.28,82.37z"/>
			<g>
				<path fill="#EF5D81" d="M77.967,269.452l-4.386,3.063c-0.64,0.443-1.39,0.682-2.169,0.682c-0.78,0-1.53-0.236-2.169-0.682
					l-4.386-3.063h-6.031c-5.81,0-10.533-4.728-10.533-10.535v-54.354c0-5.81,4.726-10.535,10.533-10.535h5.873
					c0.204,0,0.403,0.062,0.571,0.18l5.118,3.576c0.604,0.422,1.442,0.422,2.045,0l5.116-3.576c0.17-0.118,0.369-0.18,0.574-0.18
					H122v-72.29c0,0-82,0-82.867,0c-5.267,0-9.532,4.268-9.532,9.533v139.458c0,5.268,4.268,9.533,9.532,9.533
					c0.203,0,82.867,0,82.867,0v-10.811L77.967,269.452L77.967,269.452z"/>
				
					<path fill="#FFC85E" stroke="#FFFFFF" stroke-width="1.8007" stroke-linecap="round" stroke-linejoin="round" stroke-miterlimit="10" d="
					M131.682,195.03H78.126l-5.118,3.574c-0.479,0.336-1.036,0.502-1.596,0.502s-1.117-0.166-1.597-0.502l-5.116-3.574H64.39
					c-1.054,0-4.698,0-5.564,0c-5.267,0-9.532,4.268-9.532,9.532v54.354c0,5.266,4.268,9.533,9.532,9.533c0.203,0,2.578,0,6.349,0
					l4.643,3.242c0.479,0.336,1.037,0.502,1.597,0.502s1.116-0.164,1.596-0.502l4.645-3.242c21.593,0,54.03,0,54.03,0
					L131.682,195.03L131.682,195.03z"/>
				
					<polygon fill="#231F20" stroke="#231F20" stroke-width="5.0061" stroke-linecap="round" stroke-linejoin="round" stroke-miterlimit="10" points="
					71.397,146.363 93.558,159.158 71.397,171.952 				"/>
				<g>
					
						<line fill="none" stroke="#231F20" stroke-width="7" stroke-linecap="round" stroke-linejoin="round" stroke-miterlimit="10" x1="92.622" y1="221.508" x2="92.622" y2="244.189"/>
					
						<polyline fill="none" stroke="#231F20" stroke-width="7" stroke-linecap="round" stroke-linejoin="round" stroke-miterlimit="10" points="
						103.346,234.336 92.622,245.336 81.898,234.336 					"/>
				</g>
			</g>
		</g>
	</g>
	<g id="prog_a" display="none">
		<g display="inline">
			<path fill="#FFFFFF" d="M161.28,82.37c0-11.526-9.344-20.87-20.868-20.87H20.869C9.344,61.5,0,70.844,0,82.37v237.261
				C0,331.157,9.344,340.5,20.869,340.5h119.542c11.524,0,20.868-9.344,20.868-20.869L161.28,82.37L161.28,82.37z"/>
			<g>
				<g>
					<path fill="#EF5D81" d="M77.966,306.167l-4.386,3.063c-0.64,0.443-1.39,0.682-2.169,0.682c-0.78,0-1.531-0.236-2.169-0.682
						l-4.387-3.063h-6.03c-5.811,0-10.534-4.728-10.534-10.535V167.848c0-5.81,4.726-10.534,10.534-10.534h5.873
						c0.204,0,0.402,0.063,0.571,0.181l5.118,3.575c0.603,0.422,1.441,0.422,2.045,0l5.116-3.575
						c0.169-0.118,0.369-0.181,0.574-0.181H122v-72.29c0,0-82,0-82.868,0c-5.267,0-9.532,4.268-9.532,9.534v212.887
						c0,5.266,4.268,9.533,9.532,9.533c0.203,0,82.868,0,82.868,0v-10.813L77.966,306.167L77.966,306.167z"/>
					
						<path fill="#FFC85E" stroke="#FFFFFF" stroke-width="1.8007" stroke-linecap="round" stroke-linejoin="round" stroke-miterlimit="10" d="
						M131.682,158.315H78.125l-5.118,3.575c-0.479,0.336-1.037,0.502-1.596,0.502c-0.56,0-1.117-0.166-1.598-0.502l-5.115-3.575
						H64.39c-1.054,0-4.698,0-5.564,0c-5.267,0-9.533,4.268-9.533,9.532v54.356c0,5.264,4.269,9.531,9.533,9.531
						c0.203,0,2.577,0,6.348,0l4.643,3.244c0.479,0.336,1.038,0.502,1.598,0.502c0.559,0,1.115-0.166,1.596-0.502l4.645-3.244
						c21.592,0,54.031,0,54.031,0L131.682,158.315L131.682,158.315z"/>
					
						<polygon fill="#231F20" stroke="#231F20" stroke-width="5.0061" stroke-linecap="round" stroke-linejoin="round" stroke-miterlimit="10" points="
						71.397,109.649 93.557,122.444 71.397,135.238 					"/>
					
						<path fill="#FFC85E" stroke="#FFFFFF" stroke-width="1.8007" stroke-linecap="round" stroke-linejoin="round" stroke-miterlimit="10" d="
						M131.682,231.844H78.125l-5.118,3.576c-0.479,0.334-1.037,0.502-1.596,0.502c-0.56,0-1.117-0.168-1.598-0.502l-5.115-3.576
						H64.39c-1.054,0-4.698,0-5.564,0c-5.267,0-9.533,4.268-9.533,9.533v54.354c0,5.266,4.269,9.533,9.533,9.533
						c0.203,0,2.577,0,6.348,0l4.643,3.244c0.479,0.336,1.038,0.502,1.598,0.502c0.559,0,1.115-0.166,1.596-0.502l4.645-3.244
						c21.592,0,54.031,0,54.031,0L131.682,231.844L131.682,231.844z"/>
				</g>
				<g>
					
						<line fill="none" stroke="#231F20" stroke-width="7" stroke-linecap="round" stroke-linejoin="round" stroke-miterlimit="10" x1="80.707" y1="196.708" x2="103.39" y2="196.708"/>
					
						<polyline fill="none" stroke="#231F20" stroke-width="7" stroke-linecap="round" stroke-linejoin="round" stroke-miterlimit="10" points="
						93.535,185.984 104.535,196.708 93.535,207.432 					"/>
				</g>
				<g>
					
						<line fill="none" stroke="#231F20" stroke-width="7" stroke-linecap="round" stroke-linejoin="round" stroke-miterlimit="10" x1="92.621" y1="257.793" x2="92.621" y2="280.475"/>
					
						<polyline fill="none" stroke="#231F20" stroke-width="7" stroke-linecap="round" stroke-linejoin="round" stroke-miterlimit="10" points="
						103.345,270.622 92.621,281.622 81.897,270.622 					"/>
				</g>
			</g>
		</g>
	</g>
	<g id="tablero12" display="none">
		<g display="inline">
			<path fill="#DDDDDC" d="M203.911,61.5H-42.631c-11.524,0-20.869,9.344-20.869,20.87v237.261c0,11.525,9.345,20.869,20.869,20.869
				h246.542c11.524,0,20.868-9.344,20.868-20.869V82.37C224.78,70.844,215.437,61.5,203.911,61.5z"/>
			<g>
				<rect x="-45.359" y="74.5" fill="#96E072" width="123" height="123"/>
				<rect x="-45.359" y="204.5" fill="#96E072" width="123" height="123"/>
			</g>
			<g>
				<path fill="#F26522" d="M59.233,134.901c-0.403-11.021-4.832-20.989-11.871-28.515c-0.728-0.778-1.483-1.524-2.268-2.249
					c-7.521-6.955-17.441-11.309-28.396-11.693c-0.534-0.019-1.061-0.083-1.6-0.078c-0.539-0.002-1.062,0.061-1.599,0.083
					C2.55,92.851-7.364,97.224-14.87,104.19c-0.784,0.727-1.541,1.477-2.269,2.259c-7.024,7.531-11.432,17.51-11.819,28.533
					c-0.019,0.534-0.078,1.058-0.078,1.6c0.002,0.536,0.063,1.062,0.084,1.598c0.404,11.021,4.824,20.988,11.867,28.512
					c0.729,0.781,1.483,1.528,2.269,2.253c7.521,6.955,17.444,11.311,28.399,11.694c0.535,0.019,1.06,0.078,1.597,0.08
					c0.541,0,1.065-0.063,1.6-0.085c10.955-0.402,20.871-4.776,28.38-11.746c0.778-0.725,1.536-1.473,2.262-2.256
					c7.029-7.536,11.435-17.514,11.813-28.537c0.021-0.532,0.086-1.054,0.084-1.594C59.319,135.961,59.253,135.436,59.233,134.901z"
					/>
				<path fill="#C95722" d="M59.317,136.502c0.002-0.541-0.063-1.063-0.084-1.6l-24.026,0.02
					c0.403-11.048,4.989-21.041,12.28-28.397c-0.725-0.78-1.475-1.537-2.258-2.261c-7.867,7.931-12.815,18.729-13.217,30.664
					l-15.277,0.013l-0.043-42.493c-0.53-0.021-1.053-0.084-1.592-0.083c-0.541,0-1.065,0.063-1.601,0.084l0.037,42.497
					l-15.274,0.013c-0.425-11.933-5.39-22.722-13.277-30.639c-0.776,0.727-1.524,1.485-2.25,2.268
					c7.302,7.34,11.908,17.326,12.33,28.376l-24.022,0.02c-0.021,0.536-0.084,1.062-0.078,1.602
					c-0.002,0.539,0.063,1.061,0.082,1.596l24.022-0.022c-0.399,11.049-4.989,21.047-12.278,28.396
					c0.726,0.783,1.478,1.539,2.258,2.268c7.869-7.933,12.813-18.734,13.218-30.664l15.276-0.018l0.039,42.501
					c0.535,0.018,1.06,0.079,1.601,0.077c0.534-0.001,1.062-0.063,1.596-0.082l-0.039-42.496l15.275-0.017
					c0.426,11.933,5.393,22.724,13.276,30.645c0.78-0.729,1.526-1.484,2.252-2.269c-7.306-7.342-11.912-17.329-12.336-28.379
					l24.028-0.02C59.255,137.563,59.315,137.04,59.317,136.502z"/>
				
					<path fill="none" stroke="#231F20" stroke-width="2.5539" stroke-linecap="round" stroke-linejoin="round" stroke-miterlimit="10" d="
					M19.101,143.705c-0.004,2.125-1.729,3.845-3.854,3.843c-2.125-0.004-3.845-1.73-3.843-3.854"/>
				<circle fill="#231F20" cx="26.537" cy="130.229" r="4.065"/>
				<circle fill="#231F20" cx="5.123" cy="130.194" r="4.065"/>
			</g>
			<g>
				<rect x="84.641" y="74.5" fill="#96E072" width="123" height="123"/>
				<rect x="84.641" y="204.5" fill="#96E072" width="123" height="123"/>
			</g>
			<g>
				<path fill="#FFFFFF" d="M185.63,239.932c-1.483-0.332-2.957,0.604-3.289,2.086l-2.892,12.924l-12.57-14.148
					c-1.011-1.137-2.752-1.24-3.89-0.229c-1.139,1.012-1.239,2.752-0.229,3.889l7.736,8.709l-9.2,10.355l-9.199-10.355l7.735-8.709
					c1.011-1.137,0.908-2.879-0.229-3.889c-1.138-1.012-2.877-0.908-3.889,0.229l-7.303,8.221l-6.898-7.766
					c-1.011-1.139-2.751-1.24-3.89-0.23s-1.241,2.752-0.229,3.891l7.334,8.256l-9.2,10.354l-9.198-10.354l8.069-9.084
					c1.012-1.139,0.907-2.879-0.229-3.891c-1.138-1.012-2.879-0.907-3.89,0.229l-9.66,10.875c-0.008,0.008-0.014,0.015-0.021,0.021
					l-2.681,3.02l-2.754-12.313c-0.332-1.482-1.807-2.418-3.29-2.086s-2.419,1.807-2.087,3.289l12.15,54.318
					c0.287,1.281,1.426,2.152,2.687,2.152c0.199,0,0.401-0.021,0.604-0.066c1.483-0.332,2.419-1.805,2.087-3.289l-1.424-6.365
					l7.573,8.527c0.005,0.004,0.011,0.008,0.014,0.012c0.042,0.047,0.089,0.092,0.135,0.137c0.025,0.025,0.051,0.053,0.076,0.074
					c0.003,0.002,0.005,0.006,0.007,0.006c0.067,0.063,0.137,0.115,0.206,0.168c0.021,0.018,0.046,0.029,0.065,0.043
					c0.057,0.039,0.11,0.076,0.169,0.109c0.025,0.016,0.054,0.029,0.081,0.043c0.055,0.029,0.109,0.059,0.165,0.084
					c0.027,0.012,0.057,0.023,0.082,0.035c0.061,0.023,0.118,0.047,0.179,0.066c0.025,0.01,0.052,0.018,0.079,0.023
					c0.063,0.021,0.129,0.037,0.192,0.055c0.022,0.004,0.045,0.01,0.067,0.014c0.074,0.016,0.148,0.027,0.227,0.035
					c0.015,0.002,0.025,0.004,0.041,0.006c0.091,0.01,0.183,0.016,0.272,0.016c0.026,0,0.055-0.004,0.08-0.006
					c0.062,0,0.121-0.002,0.181-0.008c0.038-0.004,0.076-0.012,0.113-0.016c0.051-0.008,0.102-0.016,0.149-0.023
					c0.04-0.008,0.079-0.018,0.118-0.027c0.048-0.01,0.094-0.021,0.142-0.037c0.041-0.012,0.081-0.021,0.119-0.039
					c0.045-0.014,0.088-0.029,0.131-0.047c0.042-0.018,0.083-0.035,0.124-0.055c0.038-0.018,0.076-0.037,0.114-0.057
					c0.043-0.023,0.087-0.045,0.128-0.07c0.031-0.018,0.063-0.039,0.093-0.059c0.167-0.107,0.323-0.234,0.469-0.381
					c0.025-0.027,0.056-0.057,0.079-0.082c0.007-0.008,0.016-0.014,0.021-0.021l10.825-12.188l10.824,12.188
					c0.006,0.006,0.012,0.014,0.018,0.018c0.033,0.039,0.069,0.072,0.105,0.107c0.035,0.035,0.068,0.07,0.104,0.104
					c0.001,0,0.002,0,0.003,0c0.046,0.043,0.097,0.08,0.145,0.119c0.059,0.043,0.115,0.084,0.176,0.123
					c0.037,0.024,0.074,0.051,0.113,0.073c0.038,0.021,0.077,0.041,0.116,0.063c0.042,0.021,0.084,0.043,0.127,0.063
					c0.037,0.02,0.076,0.033,0.114,0.05c0.046,0.019,0.093,0.034,0.139,0.054c0.039,0.012,0.076,0.021,0.114,0.035
					c0.05,0.016,0.099,0.025,0.146,0.038c0.038,0.011,0.075,0.019,0.114,0.024c0.051,0.012,0.104,0.02,0.154,0.023
					c0.036,0.004,0.073,0.012,0.108,0.016c0.063,0.006,0.123,0.008,0.186,0.01c0.025,0.002,0.052,0.004,0.076,0.004
					c0.092,0,0.185-0.006,0.274-0.016c0.013,0,0.022-0.002,0.035-0.004c0.078-0.012,0.154-0.021,0.231-0.037
					c0.021-0.004,0.04-0.008,0.062-0.014c0.067-0.018,0.136-0.033,0.203-0.055c0.021-0.008,0.046-0.014,0.068-0.021
					c0.063-0.022,0.126-0.047,0.188-0.071c0.022-0.011,0.048-0.021,0.07-0.028c0.063-0.029,0.122-0.062,0.183-0.093
					c0.021-0.012,0.044-0.022,0.065-0.034c0.067-0.041,0.135-0.084,0.198-0.13c0.012-0.01,0.022-0.016,0.036-0.024
					c0.071-0.051,0.143-0.106,0.21-0.168c0.004-0.002,0.007-0.006,0.011-0.01c0.017-0.017,0.031-0.031,0.047-0.048
					c0.058-0.053,0.112-0.106,0.163-0.163c0.003-0.005,0.006-0.007,0.011-0.011l8.486-9.554l-1.653,7.392
					c-0.331,1.483,0.604,2.957,2.087,3.289c0.203,0.045,0.404,0.065,0.604,0.065c1.261,0,2.397-0.871,2.686-2.151l12.151-54.317
					C188.049,241.736,187.115,240.264,185.63,239.932z M177.967,261.568l-3.7,16.546l-9.285-10.451l9.2-10.354L177.967,261.568z
					 M123.103,277.5l-3.702-16.547l3.241-3.646l9.199,10.355L123.103,277.5z M135.526,271.809l9.199,10.355l-9.199,10.357
					l-9.198-10.357L135.526,271.809z M139.211,267.663l9.2-10.354l9.198,10.354l-9.198,10.354L139.211,267.663z M161.295,271.809
					l9.2,10.357l-9.199,10.355l-9.199-10.357L161.295,271.809z"/>
				<g>
					<path fill="#2B388F" d="M190.431,246.745h-83.355c-2.41,0-4.363-1.953-4.363-4.363c0-2.412,1.953-4.364,4.363-4.364h83.355
						c2.409,0,4.363,1.952,4.363,4.364C194.795,244.792,192.841,246.745,190.431,246.745z"/>
				</g>
			</g>
			<path fill="#DDDDDC" d="M203.911,61.5H-42.631c-11.524,0-20.869,9.344-20.869,20.87v237.261c0,11.525,9.345,20.869,20.869,20.869
				h246.542c11.524,0,20.868-9.344,20.868-20.869V82.37C224.78,70.844,215.437,61.5,203.911,61.5z"/>
			<g>
				<rect x="-45.359" y="74.5" fill="#96E072" width="123" height="123"/>
				<rect x="-45.359" y="204.5" fill="#96E072" width="123" height="123"/>
			</g>
			<g>
				<path fill="#F26522" d="M59.233,134.901c-0.403-11.021-4.832-20.989-11.871-28.515c-0.728-0.778-1.483-1.524-2.268-2.249
					c-7.521-6.955-17.441-11.309-28.396-11.693c-0.534-0.019-1.061-0.083-1.6-0.078c-0.539-0.002-1.062,0.061-1.599,0.083
					C2.55,92.851-7.364,97.224-14.87,104.19c-0.784,0.727-1.541,1.477-2.269,2.259c-7.024,7.531-11.432,17.51-11.819,28.533
					c-0.019,0.534-0.078,1.058-0.078,1.6c0.002,0.536,0.063,1.062,0.084,1.598c0.404,11.021,4.824,20.988,11.867,28.512
					c0.729,0.781,1.483,1.528,2.269,2.253c7.521,6.955,17.444,11.311,28.399,11.694c0.535,0.019,1.06,0.078,1.597,0.08
					c0.541,0,1.065-0.063,1.6-0.085c10.955-0.402,20.871-4.776,28.38-11.746c0.778-0.725,1.536-1.473,2.262-2.256
					c7.029-7.536,11.435-17.514,11.813-28.537c0.021-0.532,0.086-1.054,0.084-1.594C59.319,135.961,59.253,135.436,59.233,134.901z"
					/>
				<path fill="#C95722" d="M59.317,136.502c0.002-0.541-0.063-1.063-0.084-1.6l-24.026,0.02
					c0.403-11.048,4.989-21.041,12.28-28.397c-0.725-0.78-1.475-1.537-2.258-2.261c-7.867,7.931-12.815,18.729-13.217,30.664
					l-15.277,0.013l-0.043-42.493c-0.53-0.021-1.053-0.084-1.592-0.083c-0.541,0-1.065,0.063-1.601,0.084l0.037,42.497
					l-15.274,0.013c-0.425-11.933-5.39-22.722-13.277-30.639c-0.776,0.727-1.524,1.485-2.25,2.268
					c7.302,7.34,11.908,17.326,12.33,28.376l-24.022,0.02c-0.021,0.536-0.084,1.062-0.078,1.602
					c-0.002,0.539,0.063,1.061,0.082,1.596l24.022-0.022c-0.399,11.049-4.989,21.047-12.278,28.396
					c0.726,0.783,1.478,1.539,2.258,2.268c7.869-7.933,12.813-18.734,13.218-30.664l15.276-0.018l0.039,42.501
					c0.535,0.018,1.06,0.079,1.601,0.077c0.534-0.001,1.062-0.063,1.596-0.082l-0.039-42.496l15.275-0.017
					c0.426,11.933,5.393,22.724,13.276,30.645c0.78-0.729,1.526-1.484,2.252-2.269c-7.306-7.342-11.912-17.329-12.336-28.379
					l24.028-0.02C59.255,137.563,59.315,137.04,59.317,136.502z"/>
				
					<path fill="none" stroke="#231F20" stroke-width="2.5539" stroke-linecap="round" stroke-linejoin="round" stroke-miterlimit="10" d="
					M19.101,143.705c-0.004,2.125-1.729,3.845-3.854,3.843c-2.125-0.004-3.845-1.73-3.843-3.854"/>
				<circle fill="#231F20" cx="26.537" cy="130.229" r="4.065"/>
				<circle fill="#231F20" cx="5.123" cy="130.194" r="4.065"/>
			</g>
			<g>
				<rect x="84.641" y="74.5" fill="#96E072" width="123" height="123"/>
				<rect x="84.641" y="204.5" fill="#96E072" width="123" height="123"/>
			</g>
			<g>
				<path fill="#FFFFFF" d="M185.63,239.932c-1.483-0.332-2.957,0.604-3.289,2.086l-2.892,12.924l-12.57-14.148
					c-1.011-1.137-2.752-1.24-3.89-0.229c-1.139,1.012-1.239,2.752-0.229,3.889l7.736,8.709l-9.2,10.355l-9.199-10.355l7.735-8.709
					c1.011-1.137,0.908-2.879-0.229-3.889c-1.138-1.012-2.877-0.908-3.889,0.229l-7.303,8.221l-6.898-7.766
					c-1.011-1.139-2.751-1.24-3.89-0.23s-1.241,2.752-0.229,3.891l7.334,8.256l-9.2,10.354l-9.198-10.354l8.069-9.084
					c1.012-1.139,0.907-2.879-0.229-3.891c-1.138-1.012-2.879-0.907-3.89,0.229l-9.66,10.875c-0.008,0.008-0.014,0.015-0.021,0.021
					l-2.681,3.02l-2.754-12.313c-0.332-1.482-1.807-2.418-3.29-2.086s-2.419,1.807-2.087,3.289l12.15,54.318
					c0.287,1.281,1.426,2.152,2.687,2.152c0.199,0,0.401-0.021,0.604-0.066c1.483-0.332,2.419-1.805,2.087-3.289l-1.424-6.365
					l7.573,8.527c0.005,0.004,0.011,0.008,0.014,0.012c0.042,0.047,0.089,0.092,0.135,0.137c0.025,0.025,0.051,0.053,0.076,0.074
					c0.003,0.002,0.005,0.006,0.007,0.006c0.067,0.063,0.137,0.115,0.206,0.168c0.021,0.018,0.046,0.029,0.065,0.043
					c0.057,0.039,0.11,0.076,0.169,0.109c0.025,0.016,0.054,0.029,0.081,0.043c0.055,0.029,0.109,0.059,0.165,0.084
					c0.027,0.012,0.057,0.023,0.082,0.035c0.061,0.023,0.118,0.047,0.179,0.066c0.025,0.01,0.052,0.018,0.079,0.023
					c0.063,0.021,0.129,0.037,0.192,0.055c0.022,0.004,0.045,0.01,0.067,0.014c0.074,0.016,0.148,0.027,0.227,0.035
					c0.015,0.002,0.025,0.004,0.041,0.006c0.091,0.01,0.183,0.016,0.272,0.016c0.026,0,0.055-0.004,0.08-0.006
					c0.062,0,0.121-0.002,0.181-0.008c0.038-0.004,0.076-0.012,0.113-0.016c0.051-0.008,0.102-0.016,0.149-0.023
					c0.04-0.008,0.079-0.018,0.118-0.027c0.048-0.01,0.094-0.021,0.142-0.037c0.041-0.012,0.081-0.021,0.119-0.039
					c0.045-0.014,0.088-0.029,0.131-0.047c0.042-0.018,0.083-0.035,0.124-0.055c0.038-0.018,0.076-0.037,0.114-0.057
					c0.043-0.023,0.087-0.045,0.128-0.07c0.031-0.018,0.063-0.039,0.093-0.059c0.167-0.107,0.323-0.234,0.469-0.381
					c0.025-0.027,0.056-0.057,0.079-0.082c0.007-0.008,0.016-0.014,0.021-0.021l10.825-12.188l10.824,12.188
					c0.006,0.006,0.012,0.014,0.018,0.018c0.033,0.039,0.069,0.072,0.105,0.107c0.035,0.035,0.068,0.07,0.104,0.104
					c0.001,0,0.002,0,0.003,0c0.046,0.043,0.097,0.08,0.145,0.119c0.059,0.043,0.115,0.084,0.176,0.123
					c0.037,0.024,0.074,0.051,0.113,0.073c0.038,0.021,0.077,0.041,0.116,0.063c0.042,0.021,0.084,0.043,0.127,0.063
					c0.037,0.02,0.076,0.033,0.114,0.05c0.046,0.019,0.093,0.034,0.139,0.054c0.039,0.012,0.076,0.021,0.114,0.035
					c0.05,0.016,0.099,0.025,0.146,0.038c0.038,0.011,0.075,0.019,0.114,0.024c0.051,0.012,0.104,0.02,0.154,0.023
					c0.036,0.004,0.073,0.012,0.108,0.016c0.063,0.006,0.123,0.008,0.186,0.01c0.025,0.002,0.052,0.004,0.076,0.004
					c0.092,0,0.185-0.006,0.274-0.016c0.013,0,0.022-0.002,0.035-0.004c0.078-0.012,0.154-0.021,0.231-0.037
					c0.021-0.004,0.04-0.008,0.062-0.014c0.067-0.018,0.136-0.033,0.203-0.055c0.021-0.008,0.046-0.014,0.068-0.021
					c0.063-0.022,0.126-0.047,0.188-0.071c0.022-0.011,0.048-0.021,0.07-0.028c0.063-0.029,0.122-0.062,0.183-0.093
					c0.021-0.012,0.044-0.022,0.065-0.034c0.067-0.041,0.135-0.084,0.198-0.13c0.012-0.01,0.022-0.016,0.036-0.024
					c0.071-0.051,0.143-0.106,0.21-0.168c0.004-0.002,0.007-0.006,0.011-0.01c0.017-0.017,0.031-0.031,0.047-0.048
					c0.058-0.053,0.112-0.106,0.163-0.163c0.003-0.005,0.006-0.007,0.011-0.011l8.486-9.554l-1.653,7.392
					c-0.331,1.483,0.604,2.957,2.087,3.289c0.203,0.045,0.404,0.065,0.604,0.065c1.261,0,2.397-0.871,2.686-2.151l12.151-54.317
					C188.049,241.736,187.115,240.264,185.63,239.932z M177.967,261.568l-3.7,16.546l-9.285-10.451l9.2-10.354L177.967,261.568z
					 M123.103,277.5l-3.702-16.547l3.241-3.646l9.199,10.355L123.103,277.5z M135.526,271.809l9.199,10.355l-9.199,10.357
					l-9.198-10.357L135.526,271.809z M139.211,267.663l9.2-10.354l9.198,10.354l-9.198,10.354L139.211,267.663z M161.295,271.809
					l9.2,10.357l-9.199,10.355l-9.199-10.357L161.295,271.809z"/>
				<g>
					<path fill="#2B388F" d="M190.431,246.745h-83.355c-2.41,0-4.363-1.953-4.363-4.363c0-2.412,1.953-4.364,4.363-4.364h83.355
						c2.409,0,4.363,1.952,4.363,4.364C194.795,244.792,192.841,246.745,190.431,246.745z"/>
				</g>
			</g>
		</g>
	</g>
	<g id="tablero_12" display="none">
		<g display="inline">
			<path fill="#DDDDDC" d="M203.911,61.5H-42.631c-11.524,0-20.869,9.344-20.869,20.87v237.261c0,11.525,9.345,20.869,20.869,20.869
				h246.542c11.524,0,20.868-9.344,20.868-20.869V82.37C224.78,70.844,215.437,61.5,203.911,61.5z"/>
			<g>
				<rect x="-45.359" y="74.5" fill="#96E072" width="123" height="123"/>
				<rect x="-45.359" y="204.5" fill="#96E072" width="123" height="123"/>
			</g>
			<g>
				<path fill="#F26522" d="M59.233,134.901c-0.403-11.021-4.832-20.989-11.871-28.515c-0.728-0.778-1.483-1.524-2.268-2.249
					c-7.521-6.955-17.441-11.309-28.396-11.693c-0.534-0.019-1.061-0.083-1.6-0.078c-0.539-0.002-1.062,0.061-1.599,0.083
					C2.55,92.851-7.364,97.224-14.87,104.19c-0.784,0.727-1.541,1.477-2.269,2.259c-7.024,7.531-11.432,17.51-11.819,28.533
					c-0.019,0.534-0.078,1.058-0.078,1.6c0.002,0.536,0.063,1.062,0.084,1.598c0.404,11.021,4.824,20.988,11.867,28.512
					c0.729,0.781,1.483,1.528,2.269,2.253c7.521,6.955,17.444,11.311,28.399,11.694c0.535,0.019,1.06,0.078,1.597,0.08
					c0.541,0,1.065-0.063,1.6-0.085c10.955-0.402,20.871-4.776,28.38-11.746c0.778-0.725,1.536-1.473,2.262-2.256
					c7.029-7.536,11.435-17.514,11.813-28.537c0.021-0.532,0.086-1.054,0.084-1.594C59.319,135.961,59.253,135.436,59.233,134.901z"
					/>
				<path fill="#C95722" d="M59.317,136.502c0.002-0.541-0.063-1.063-0.084-1.6l-24.026,0.02
					c0.403-11.048,4.989-21.041,12.28-28.397c-0.725-0.78-1.475-1.537-2.258-2.261c-7.867,7.931-12.815,18.729-13.217,30.664
					l-15.277,0.013l-0.043-42.493c-0.53-0.021-1.053-0.084-1.592-0.083c-0.541,0-1.065,0.063-1.601,0.084l0.037,42.497
					l-15.274,0.013c-0.425-11.933-5.39-22.722-13.277-30.639c-0.776,0.727-1.524,1.485-2.25,2.268
					c7.302,7.34,11.908,17.326,12.33,28.376l-24.022,0.02c-0.021,0.536-0.084,1.062-0.078,1.602
					c-0.002,0.539,0.063,1.061,0.082,1.596l24.022-0.022c-0.399,11.049-4.989,21.047-12.278,28.396
					c0.726,0.783,1.478,1.539,2.258,2.268c7.869-7.933,12.813-18.734,13.218-30.664l15.276-0.018l0.039,42.501
					c0.535,0.018,1.06,0.079,1.601,0.077c0.534-0.001,1.062-0.063,1.596-0.082l-0.039-42.496l15.275-0.017
					c0.426,11.933,5.393,22.724,13.276,30.645c0.78-0.729,1.526-1.484,2.252-2.269c-7.306-7.342-11.912-17.329-12.336-28.379
					l24.028-0.02C59.255,137.563,59.315,137.04,59.317,136.502z"/>
				
					<path fill="none" stroke="#231F20" stroke-width="2.5539" stroke-linecap="round" stroke-linejoin="round" stroke-miterlimit="10" d="
					M19.101,143.705c-0.004,2.125-1.729,3.845-3.854,3.843c-2.125-0.004-3.845-1.73-3.843-3.854"/>
				<circle fill="#231F20" cx="26.537" cy="130.229" r="4.065"/>
				<circle fill="#231F20" cx="5.123" cy="130.194" r="4.065"/>
			</g>
			<g>
				<rect x="84.641" y="74.5" fill="#96E072" width="123" height="123"/>
				<rect x="84.641" y="204.5" fill="#96E072" width="123" height="123"/>
			</g>
			<g>
				<path fill="#FFFFFF" d="M185.63,239.932c-1.483-0.332-2.957,0.604-3.289,2.086l-2.892,12.924l-12.57-14.148
					c-1.011-1.137-2.752-1.24-3.89-0.229c-1.139,1.012-1.239,2.752-0.229,3.889l7.736,8.709l-9.2,10.355l-9.199-10.355l7.735-8.709
					c1.011-1.137,0.908-2.879-0.229-3.889c-1.138-1.012-2.877-0.908-3.889,0.229l-7.303,8.221l-6.898-7.766
					c-1.011-1.139-2.751-1.24-3.89-0.23s-1.241,2.752-0.229,3.891l7.334,8.256l-9.2,10.354l-9.198-10.354l8.069-9.084
					c1.012-1.139,0.907-2.879-0.229-3.891c-1.138-1.012-2.879-0.907-3.89,0.229l-9.66,10.875c-0.008,0.008-0.014,0.015-0.021,0.021
					l-2.681,3.02l-2.754-12.313c-0.332-1.482-1.807-2.418-3.29-2.086s-2.419,1.807-2.087,3.289l12.15,54.318
					c0.287,1.281,1.426,2.152,2.687,2.152c0.199,0,0.401-0.021,0.604-0.066c1.483-0.332,2.419-1.805,2.087-3.289l-1.424-6.365
					l7.573,8.527c0.005,0.004,0.011,0.008,0.014,0.012c0.042,0.047,0.089,0.092,0.135,0.137c0.025,0.025,0.051,0.053,0.076,0.074
					c0.003,0.002,0.005,0.006,0.007,0.006c0.067,0.063,0.137,0.115,0.206,0.168c0.021,0.018,0.046,0.029,0.065,0.043
					c0.057,0.039,0.11,0.076,0.169,0.109c0.025,0.016,0.054,0.029,0.081,0.043c0.055,0.029,0.109,0.059,0.165,0.084
					c0.027,0.012,0.057,0.023,0.082,0.035c0.061,0.023,0.118,0.047,0.179,0.066c0.025,0.01,0.052,0.018,0.079,0.023
					c0.063,0.021,0.129,0.037,0.192,0.055c0.022,0.004,0.045,0.01,0.067,0.014c0.074,0.016,0.148,0.027,0.227,0.035
					c0.015,0.002,0.025,0.004,0.041,0.006c0.091,0.01,0.183,0.016,0.272,0.016c0.026,0,0.055-0.004,0.08-0.006
					c0.062,0,0.121-0.002,0.181-0.008c0.038-0.004,0.076-0.012,0.113-0.016c0.051-0.008,0.102-0.016,0.149-0.023
					c0.04-0.008,0.079-0.018,0.118-0.027c0.048-0.01,0.094-0.021,0.142-0.037c0.041-0.012,0.081-0.021,0.119-0.039
					c0.045-0.014,0.088-0.029,0.131-0.047c0.042-0.018,0.083-0.035,0.124-0.055c0.038-0.018,0.076-0.037,0.114-0.057
					c0.043-0.023,0.087-0.045,0.128-0.07c0.031-0.018,0.063-0.039,0.093-0.059c0.167-0.107,0.323-0.234,0.469-0.381
					c0.025-0.027,0.056-0.057,0.079-0.082c0.007-0.008,0.016-0.014,0.021-0.021l10.825-12.188l10.824,12.188
					c0.006,0.006,0.012,0.014,0.018,0.018c0.033,0.039,0.069,0.072,0.105,0.107c0.035,0.035,0.068,0.07,0.104,0.104
					c0.001,0,0.002,0,0.003,0c0.046,0.043,0.097,0.08,0.145,0.119c0.059,0.043,0.115,0.084,0.176,0.123
					c0.037,0.024,0.074,0.051,0.113,0.073c0.038,0.021,0.077,0.041,0.116,0.063c0.042,0.021,0.084,0.043,0.127,0.063
					c0.037,0.02,0.076,0.033,0.114,0.05c0.046,0.019,0.093,0.034,0.139,0.054c0.039,0.012,0.076,0.021,0.114,0.035
					c0.05,0.016,0.099,0.025,0.146,0.038c0.038,0.011,0.075,0.019,0.114,0.024c0.051,0.012,0.104,0.02,0.154,0.023
					c0.036,0.004,0.073,0.012,0.108,0.016c0.063,0.006,0.123,0.008,0.186,0.01c0.025,0.002,0.052,0.004,0.076,0.004
					c0.092,0,0.185-0.006,0.274-0.016c0.013,0,0.022-0.002,0.035-0.004c0.078-0.012,0.154-0.021,0.231-0.037
					c0.021-0.004,0.04-0.008,0.062-0.014c0.067-0.018,0.136-0.033,0.203-0.055c0.021-0.008,0.046-0.014,0.068-0.021
					c0.063-0.022,0.126-0.047,0.188-0.071c0.022-0.011,0.048-0.021,0.07-0.028c0.063-0.029,0.122-0.062,0.183-0.093
					c0.021-0.012,0.044-0.022,0.065-0.034c0.067-0.041,0.135-0.084,0.198-0.13c0.012-0.01,0.022-0.016,0.036-0.024
					c0.071-0.051,0.143-0.106,0.21-0.168c0.004-0.002,0.007-0.006,0.011-0.01c0.017-0.017,0.031-0.031,0.047-0.048
					c0.058-0.053,0.112-0.106,0.163-0.163c0.003-0.005,0.006-0.007,0.011-0.011l8.486-9.554l-1.653,7.392
					c-0.331,1.483,0.604,2.957,2.087,3.289c0.203,0.045,0.404,0.065,0.604,0.065c1.261,0,2.397-0.871,2.686-2.151l12.151-54.317
					C188.049,241.736,187.115,240.264,185.63,239.932z M177.967,261.568l-3.7,16.546l-9.285-10.451l9.2-10.354L177.967,261.568z
					 M123.103,277.5l-3.702-16.547l3.241-3.646l9.199,10.355L123.103,277.5z M135.526,271.809l9.199,10.355l-9.199,10.357
					l-9.198-10.357L135.526,271.809z M139.211,267.663l9.2-10.354l9.198,10.354l-9.198,10.354L139.211,267.663z M161.295,271.809
					l9.2,10.357l-9.199,10.355l-9.199-10.357L161.295,271.809z"/>
				<g>
					<path fill="#2B388F" d="M190.431,246.745h-83.355c-2.41,0-4.363-1.953-4.363-4.363c0-2.412,1.953-4.364,4.363-4.364h83.355
						c2.409,0,4.363,1.952,4.363,4.364C194.795,244.792,192.841,246.745,190.431,246.745z"/>
				</g>
			</g>
			<path fill="#6D6E70" d="M203.911,61.5H-42.631c-11.524,0-20.869,9.344-20.869,20.87v237.261c0,11.525,9.345,20.869,20.869,20.869
				h246.542c11.524,0,20.868-9.344,20.868-20.869V82.37C224.78,70.844,215.437,61.5,203.911,61.5z"/>
			<g>
				<rect x="-45.359" y="74.5" fill="#96E072" width="123" height="123"/>
				<rect x="-45.359" y="204.5" fill="#96E072" width="123" height="123"/>
			</g>
			<g>
				<path fill="#F26522" d="M59.233,134.901c-0.403-11.021-4.832-20.989-11.871-28.515c-0.728-0.778-1.483-1.524-2.268-2.249
					c-7.521-6.955-17.441-11.309-28.396-11.693c-0.534-0.019-1.061-0.083-1.6-0.078c-0.539-0.002-1.062,0.061-1.599,0.083
					C2.55,92.851-7.364,97.224-14.87,104.19c-0.784,0.727-1.541,1.477-2.269,2.259c-7.024,7.531-11.432,17.51-11.819,28.533
					c-0.019,0.534-0.078,1.058-0.078,1.6c0.002,0.536,0.063,1.062,0.084,1.598c0.404,11.021,4.824,20.988,11.867,28.512
					c0.729,0.781,1.483,1.528,2.269,2.253c7.521,6.955,17.444,11.311,28.399,11.694c0.535,0.019,1.06,0.078,1.597,0.08
					c0.541,0,1.065-0.063,1.6-0.085c10.955-0.402,20.871-4.776,28.38-11.746c0.778-0.725,1.536-1.473,2.262-2.256
					c7.029-7.536,11.435-17.514,11.813-28.537c0.021-0.532,0.086-1.054,0.084-1.594C59.319,135.961,59.253,135.436,59.233,134.901z"
					/>
				<path fill="#C95722" d="M59.317,136.502c0.002-0.541-0.063-1.063-0.084-1.6l-24.026,0.02
					c0.403-11.048,4.989-21.041,12.28-28.397c-0.725-0.78-1.475-1.537-2.258-2.261c-7.867,7.931-12.815,18.729-13.217,30.664
					l-15.277,0.013l-0.043-42.493c-0.53-0.021-1.053-0.084-1.592-0.083c-0.541,0-1.065,0.063-1.601,0.084l0.037,42.497
					l-15.274,0.013c-0.425-11.933-5.39-22.722-13.277-30.639c-0.776,0.727-1.524,1.485-2.25,2.268
					c7.302,7.34,11.908,17.326,12.33,28.376l-24.022,0.02c-0.021,0.536-0.084,1.062-0.078,1.602
					c-0.002,0.539,0.063,1.061,0.082,1.596l24.022-0.022c-0.399,11.049-4.989,21.047-12.278,28.396
					c0.726,0.783,1.478,1.539,2.258,2.268c7.869-7.933,12.813-18.734,13.218-30.664l15.276-0.018l0.039,42.501
					c0.535,0.018,1.06,0.079,1.601,0.077c0.534-0.001,1.062-0.063,1.596-0.082l-0.039-42.496l15.275-0.017
					c0.426,11.933,5.393,22.724,13.276,30.645c0.78-0.729,1.526-1.484,2.252-2.269c-7.306-7.342-11.912-17.329-12.336-28.379
					l24.028-0.02C59.255,137.563,59.315,137.04,59.317,136.502z"/>
				
					<path fill="none" stroke="#231F20" stroke-width="2.5539" stroke-linecap="round" stroke-linejoin="round" stroke-miterlimit="10" d="
					M19.101,143.705c-0.004,2.125-1.729,3.845-3.854,3.843c-2.125-0.004-3.845-1.73-3.843-3.854"/>
				<circle fill="#231F20" cx="26.537" cy="130.229" r="4.065"/>
				<circle fill="#231F20" cx="5.123" cy="130.194" r="4.065"/>
			</g>
			<g>
				<rect x="84.641" y="74.5" fill="#96E072" width="123" height="123"/>
				<rect x="84.641" y="204.5" fill="#96E072" width="123" height="123"/>
			</g>
			<g>
				<path fill="#FFFFFF" d="M185.63,239.932c-1.483-0.332-2.957,0.604-3.289,2.086l-2.892,12.924l-12.57-14.148
					c-1.011-1.137-2.752-1.24-3.89-0.229c-1.139,1.012-1.239,2.752-0.229,3.889l7.736,8.709l-9.2,10.355l-9.199-10.355l7.735-8.709
					c1.011-1.137,0.908-2.879-0.229-3.889c-1.138-1.012-2.877-0.908-3.889,0.229l-7.303,8.221l-6.898-7.766
					c-1.011-1.139-2.751-1.24-3.89-0.23s-1.241,2.752-0.229,3.891l7.334,8.256l-9.2,10.354l-9.198-10.354l8.069-9.084
					c1.012-1.139,0.907-2.879-0.229-3.891c-1.138-1.012-2.879-0.907-3.89,0.229l-9.66,10.875c-0.008,0.008-0.014,0.015-0.021,0.021
					l-2.681,3.02l-2.754-12.313c-0.332-1.482-1.807-2.418-3.29-2.086s-2.419,1.807-2.087,3.289l12.15,54.318
					c0.287,1.281,1.426,2.152,2.687,2.152c0.199,0,0.401-0.021,0.604-0.066c1.483-0.332,2.419-1.805,2.087-3.289l-1.424-6.365
					l7.573,8.527c0.005,0.004,0.011,0.008,0.014,0.012c0.042,0.047,0.089,0.092,0.135,0.137c0.025,0.025,0.051,0.053,0.076,0.074
					c0.003,0.002,0.005,0.006,0.007,0.006c0.067,0.063,0.137,0.115,0.206,0.168c0.021,0.018,0.046,0.029,0.065,0.043
					c0.057,0.039,0.11,0.076,0.169,0.109c0.025,0.016,0.054,0.029,0.081,0.043c0.055,0.029,0.109,0.059,0.165,0.084
					c0.027,0.012,0.057,0.023,0.082,0.035c0.061,0.023,0.118,0.047,0.179,0.066c0.025,0.01,0.052,0.018,0.079,0.023
					c0.063,0.021,0.129,0.037,0.192,0.055c0.022,0.004,0.045,0.01,0.067,0.014c0.074,0.016,0.148,0.027,0.227,0.035
					c0.015,0.002,0.025,0.004,0.041,0.006c0.091,0.01,0.183,0.016,0.272,0.016c0.026,0,0.055-0.004,0.08-0.006
					c0.062,0,0.121-0.002,0.181-0.008c0.038-0.004,0.076-0.012,0.113-0.016c0.051-0.008,0.102-0.016,0.149-0.023
					c0.04-0.008,0.079-0.018,0.118-0.027c0.048-0.01,0.094-0.021,0.142-0.037c0.041-0.012,0.081-0.021,0.119-0.039
					c0.045-0.014,0.088-0.029,0.131-0.047c0.042-0.018,0.083-0.035,0.124-0.055c0.038-0.018,0.076-0.037,0.114-0.057
					c0.043-0.023,0.087-0.045,0.128-0.07c0.031-0.018,0.063-0.039,0.093-0.059c0.167-0.107,0.323-0.234,0.469-0.381
					c0.025-0.027,0.056-0.057,0.079-0.082c0.007-0.008,0.016-0.014,0.021-0.021l10.825-12.188l10.824,12.188
					c0.006,0.006,0.012,0.014,0.018,0.018c0.033,0.039,0.069,0.072,0.105,0.107c0.035,0.035,0.068,0.07,0.104,0.104
					c0.001,0,0.002,0,0.003,0c0.046,0.043,0.097,0.08,0.145,0.119c0.059,0.043,0.115,0.084,0.176,0.123
					c0.037,0.024,0.074,0.051,0.113,0.073c0.038,0.021,0.077,0.041,0.116,0.063c0.042,0.021,0.084,0.043,0.127,0.063
					c0.037,0.02,0.076,0.033,0.114,0.05c0.046,0.019,0.093,0.034,0.139,0.054c0.039,0.012,0.076,0.021,0.114,0.035
					c0.05,0.016,0.099,0.025,0.146,0.038c0.038,0.011,0.075,0.019,0.114,0.024c0.051,0.012,0.104,0.02,0.154,0.023
					c0.036,0.004,0.073,0.012,0.108,0.016c0.063,0.006,0.123,0.008,0.186,0.01c0.025,0.002,0.052,0.004,0.076,0.004
					c0.092,0,0.185-0.006,0.274-0.016c0.013,0,0.022-0.002,0.035-0.004c0.078-0.012,0.154-0.021,0.231-0.037
					c0.021-0.004,0.04-0.008,0.062-0.014c0.067-0.018,0.136-0.033,0.203-0.055c0.021-0.008,0.046-0.014,0.068-0.021
					c0.063-0.022,0.126-0.047,0.188-0.071c0.022-0.011,0.048-0.021,0.07-0.028c0.063-0.029,0.122-0.062,0.183-0.093
					c0.021-0.012,0.044-0.022,0.065-0.034c0.067-0.041,0.135-0.084,0.198-0.13c0.012-0.01,0.022-0.016,0.036-0.024
					c0.071-0.051,0.143-0.106,0.21-0.168c0.004-0.002,0.007-0.006,0.011-0.01c0.017-0.017,0.031-0.031,0.047-0.048
					c0.058-0.053,0.112-0.106,0.163-0.163c0.003-0.005,0.006-0.007,0.011-0.011l8.486-9.554l-1.653,7.392
					c-0.331,1.483,0.604,2.957,2.087,3.289c0.203,0.045,0.404,0.065,0.604,0.065c1.261,0,2.397-0.871,2.686-2.151l12.151-54.317
					C188.049,241.736,187.115,240.264,185.63,239.932z M177.967,261.568l-3.7,16.546l-9.285-10.451l9.2-10.354L177.967,261.568z
					 M123.103,277.5l-3.702-16.547l3.241-3.646l9.199,10.355L123.103,277.5z M135.526,271.809l9.199,10.355l-9.199,10.357
					l-9.198-10.357L135.526,271.809z M139.211,267.663l9.2-10.354l9.198,10.354l-9.198,10.354L139.211,267.663z M161.295,271.809
					l9.2,10.357l-9.199,10.355l-9.199-10.357L161.295,271.809z"/>
				<g>
					<path fill="#2B388F" d="M190.431,246.745h-83.355c-2.41,0-4.363-1.953-4.363-4.363c0-2.412,1.953-4.364,4.363-4.364h83.355
						c2.409,0,4.363,1.952,4.363,4.364C194.795,244.792,192.841,246.745,190.431,246.745z"/>
				</g>
			</g>
		</g>
	</g>
	<g id="tablero12_1_" display="none">
		<g display="inline">
			<path fill="#DDDDDC" d="M203.911,61.5H-42.631c-11.524,0-20.869,9.344-20.869,20.87v237.261c0,11.525,9.345,20.869,20.869,20.869
				h246.542c11.524,0,20.868-9.344,20.868-20.869V82.37C224.78,70.844,215.437,61.5,203.911,61.5z"/>
			<g>
				<rect x="-45.359" y="74.5" fill="#96E072" width="123" height="123"/>
				<rect x="-45.359" y="204.5" fill="#96E072" width="123" height="123"/>
			</g>
			<g>
				<path fill="#F26522" d="M59.233,134.901c-0.403-11.021-4.832-20.989-11.871-28.515c-0.728-0.778-1.483-1.524-2.268-2.249
					c-7.521-6.955-17.441-11.309-28.396-11.693c-0.534-0.019-1.061-0.083-1.6-0.078c-0.539-0.002-1.062,0.061-1.599,0.083
					C2.55,92.851-7.364,97.224-14.87,104.19c-0.784,0.727-1.541,1.477-2.269,2.259c-7.024,7.531-11.432,17.51-11.819,28.533
					c-0.019,0.534-0.078,1.058-0.078,1.6c0.002,0.536,0.063,1.062,0.084,1.598c0.404,11.021,4.824,20.988,11.867,28.512
					c0.729,0.781,1.483,1.528,2.269,2.253c7.521,6.955,17.444,11.311,28.399,11.694c0.535,0.019,1.06,0.078,1.597,0.08
					c0.541,0,1.065-0.063,1.6-0.085c10.955-0.402,20.871-4.776,28.38-11.746c0.778-0.725,1.536-1.473,2.262-2.256
					c7.029-7.536,11.435-17.514,11.813-28.537c0.021-0.532,0.086-1.054,0.084-1.594C59.319,135.961,59.253,135.436,59.233,134.901z"
					/>
				<path fill="#C95722" d="M59.317,136.502c0.002-0.541-0.063-1.063-0.084-1.6l-24.026,0.02
					c0.403-11.048,4.989-21.041,12.28-28.397c-0.725-0.78-1.475-1.537-2.258-2.261c-7.867,7.931-12.815,18.729-13.217,30.664
					l-15.277,0.013l-0.043-42.493c-0.53-0.021-1.053-0.084-1.592-0.083c-0.541,0-1.065,0.063-1.601,0.084l0.037,42.497
					l-15.274,0.013c-0.425-11.933-5.39-22.722-13.277-30.639c-0.776,0.727-1.524,1.485-2.25,2.268
					c7.302,7.34,11.908,17.326,12.33,28.376l-24.022,0.02c-0.021,0.536-0.084,1.062-0.078,1.602
					c-0.002,0.539,0.063,1.061,0.082,1.596l24.022-0.022c-0.399,11.049-4.989,21.047-12.278,28.396
					c0.726,0.783,1.478,1.539,2.258,2.268c7.869-7.933,12.813-18.734,13.218-30.664l15.276-0.018l0.039,42.501
					c0.535,0.018,1.06,0.079,1.601,0.077c0.534-0.001,1.062-0.063,1.596-0.082l-0.039-42.496l15.275-0.017
					c0.426,11.933,5.393,22.724,13.276,30.645c0.78-0.729,1.526-1.484,2.252-2.269c-7.306-7.342-11.912-17.329-12.336-28.379
					l24.028-0.02C59.255,137.563,59.315,137.04,59.317,136.502z"/>
				
					<path fill="none" stroke="#231F20" stroke-width="2.5539" stroke-linecap="round" stroke-linejoin="round" stroke-miterlimit="10" d="
					M19.101,143.705c-0.004,2.125-1.729,3.845-3.854,3.843c-2.125-0.004-3.845-1.73-3.843-3.854"/>
				<circle fill="#231F20" cx="26.537" cy="130.229" r="4.065"/>
				<circle fill="#231F20" cx="5.123" cy="130.194" r="4.065"/>
			</g>
			<g>
				<rect x="84.641" y="74.5" fill="#96E072" width="123" height="123"/>
				<rect x="84.641" y="204.5" fill="#96E072" width="123" height="123"/>
			</g>
			<g>
				<path fill="#FFFFFF" d="M185.63,239.932c-1.483-0.332-2.957,0.604-3.289,2.086l-2.892,12.924l-12.57-14.148
					c-1.011-1.137-2.752-1.24-3.89-0.229c-1.139,1.012-1.239,2.752-0.229,3.889l7.736,8.709l-9.2,10.355l-9.199-10.355l7.735-8.709
					c1.011-1.137,0.908-2.879-0.229-3.889c-1.138-1.012-2.877-0.908-3.889,0.229l-7.303,8.221l-6.898-7.766
					c-1.011-1.139-2.751-1.24-3.89-0.23s-1.241,2.752-0.229,3.891l7.334,8.256l-9.2,10.354l-9.198-10.354l8.069-9.084
					c1.012-1.139,0.907-2.879-0.229-3.891c-1.138-1.012-2.879-0.907-3.89,0.229l-9.66,10.875c-0.008,0.008-0.014,0.015-0.021,0.021
					l-2.681,3.02l-2.754-12.313c-0.332-1.482-1.807-2.418-3.29-2.086s-2.419,1.807-2.087,3.289l12.15,54.318
					c0.287,1.281,1.426,2.152,2.687,2.152c0.199,0,0.401-0.021,0.604-0.066c1.483-0.332,2.419-1.805,2.087-3.289l-1.424-6.365
					l7.573,8.527c0.005,0.004,0.011,0.008,0.014,0.012c0.042,0.047,0.089,0.092,0.135,0.137c0.025,0.025,0.051,0.053,0.076,0.074
					c0.003,0.002,0.005,0.006,0.007,0.006c0.067,0.063,0.137,0.115,0.206,0.168c0.021,0.018,0.046,0.029,0.065,0.043
					c0.057,0.039,0.11,0.076,0.169,0.109c0.025,0.016,0.054,0.029,0.081,0.043c0.055,0.029,0.109,0.059,0.165,0.084
					c0.027,0.012,0.057,0.023,0.082,0.035c0.061,0.023,0.118,0.047,0.179,0.066c0.025,0.01,0.052,0.018,0.079,0.023
					c0.063,0.021,0.129,0.037,0.192,0.055c0.022,0.004,0.045,0.01,0.067,0.014c0.074,0.016,0.148,0.027,0.227,0.035
					c0.015,0.002,0.025,0.004,0.041,0.006c0.091,0.01,0.183,0.016,0.272,0.016c0.026,0,0.055-0.004,0.08-0.006
					c0.062,0,0.121-0.002,0.181-0.008c0.038-0.004,0.076-0.012,0.113-0.016c0.051-0.008,0.102-0.016,0.149-0.023
					c0.04-0.008,0.079-0.018,0.118-0.027c0.048-0.01,0.094-0.021,0.142-0.037c0.041-0.012,0.081-0.021,0.119-0.039
					c0.045-0.014,0.088-0.029,0.131-0.047c0.042-0.018,0.083-0.035,0.124-0.055c0.038-0.018,0.076-0.037,0.114-0.057
					c0.043-0.023,0.087-0.045,0.128-0.07c0.031-0.018,0.063-0.039,0.093-0.059c0.167-0.107,0.323-0.234,0.469-0.381
					c0.025-0.027,0.056-0.057,0.079-0.082c0.007-0.008,0.016-0.014,0.021-0.021l10.825-12.188l10.824,12.188
					c0.006,0.006,0.012,0.014,0.018,0.018c0.033,0.039,0.069,0.072,0.105,0.107c0.035,0.035,0.068,0.07,0.104,0.104
					c0.001,0,0.002,0,0.003,0c0.046,0.043,0.097,0.08,0.145,0.119c0.059,0.043,0.115,0.084,0.176,0.123
					c0.037,0.024,0.074,0.051,0.113,0.073c0.038,0.021,0.077,0.041,0.116,0.063c0.042,0.021,0.084,0.043,0.127,0.063
					c0.037,0.02,0.076,0.033,0.114,0.05c0.046,0.019,0.093,0.034,0.139,0.054c0.039,0.012,0.076,0.021,0.114,0.035
					c0.05,0.016,0.099,0.025,0.146,0.038c0.038,0.011,0.075,0.019,0.114,0.024c0.051,0.012,0.104,0.02,0.154,0.023
					c0.036,0.004,0.073,0.012,0.108,0.016c0.063,0.006,0.123,0.008,0.186,0.01c0.025,0.002,0.052,0.004,0.076,0.004
					c0.092,0,0.185-0.006,0.274-0.016c0.013,0,0.022-0.002,0.035-0.004c0.078-0.012,0.154-0.021,0.231-0.037
					c0.021-0.004,0.04-0.008,0.062-0.014c0.067-0.018,0.136-0.033,0.203-0.055c0.021-0.008,0.046-0.014,0.068-0.021
					c0.063-0.022,0.126-0.047,0.188-0.071c0.022-0.011,0.048-0.021,0.07-0.028c0.063-0.029,0.122-0.062,0.183-0.093
					c0.021-0.012,0.044-0.022,0.065-0.034c0.067-0.041,0.135-0.084,0.198-0.13c0.012-0.01,0.022-0.016,0.036-0.024
					c0.071-0.051,0.143-0.106,0.21-0.168c0.004-0.002,0.007-0.006,0.011-0.01c0.017-0.017,0.031-0.031,0.047-0.048
					c0.058-0.053,0.112-0.106,0.163-0.163c0.003-0.005,0.006-0.007,0.011-0.011l8.486-9.554l-1.653,7.392
					c-0.331,1.483,0.604,2.957,2.087,3.289c0.203,0.045,0.404,0.065,0.604,0.065c1.261,0,2.397-0.871,2.686-2.151l12.151-54.317
					C188.049,241.736,187.115,240.264,185.63,239.932z M177.967,261.568l-3.7,16.546l-9.285-10.451l9.2-10.354L177.967,261.568z
					 M123.103,277.5l-3.702-16.547l3.241-3.646l9.199,10.355L123.103,277.5z M135.526,271.809l9.199,10.355l-9.199,10.357
					l-9.198-10.357L135.526,271.809z M139.211,267.663l9.2-10.354l9.198,10.354l-9.198,10.354L139.211,267.663z M161.295,271.809
					l9.2,10.357l-9.199,10.355l-9.199-10.357L161.295,271.809z"/>
				<g>
					<path fill="#2B388F" d="M190.431,246.745h-83.355c-2.41,0-4.363-1.953-4.363-4.363c0-2.412,1.953-4.364,4.363-4.364h83.355
						c2.409,0,4.363,1.952,4.363,4.364C194.795,244.792,192.841,246.745,190.431,246.745z"/>
				</g>
			</g>
			<path fill="#FFFFFF" d="M203.911,61.5H-42.631c-11.524,0-20.869,9.344-20.869,20.87v237.261c0,11.525,9.345,20.869,20.869,20.869
				h246.542c11.524,0,20.868-9.344,20.868-20.869V82.37C224.78,70.844,215.437,61.5,203.911,61.5z"/>
			<g>
				<rect x="-45.359" y="74.5" fill="#96E072" width="123" height="123"/>
				<rect x="-45.359" y="204.5" fill="#96E072" width="123" height="123"/>
			</g>
			<g>
				<path fill="#F26522" d="M59.233,134.901c-0.403-11.021-4.832-20.989-11.871-28.515c-0.728-0.778-1.483-1.524-2.268-2.249
					c-7.521-6.955-17.441-11.309-28.396-11.693c-0.534-0.019-1.061-0.083-1.6-0.078c-0.539-0.002-1.062,0.061-1.599,0.083
					C2.55,92.851-7.364,97.224-14.87,104.19c-0.784,0.727-1.541,1.477-2.269,2.259c-7.024,7.531-11.432,17.51-11.819,28.533
					c-0.019,0.534-0.078,1.058-0.078,1.6c0.002,0.536,0.063,1.062,0.084,1.598c0.404,11.021,4.824,20.988,11.867,28.512
					c0.729,0.781,1.483,1.528,2.269,2.253c7.521,6.955,17.444,11.311,28.399,11.694c0.535,0.019,1.06,0.078,1.597,0.08
					c0.541,0,1.065-0.063,1.6-0.085c10.955-0.402,20.871-4.776,28.38-11.746c0.778-0.725,1.536-1.473,2.262-2.256
					c7.029-7.536,11.435-17.514,11.813-28.537c0.021-0.532,0.086-1.054,0.084-1.594C59.319,135.961,59.253,135.436,59.233,134.901z"
					/>
				<path fill="#C95722" d="M59.317,136.502c0.002-0.541-0.063-1.063-0.084-1.6l-24.026,0.02
					c0.403-11.048,4.989-21.041,12.28-28.397c-0.725-0.78-1.475-1.537-2.258-2.261c-7.867,7.931-12.815,18.729-13.217,30.664
					l-15.277,0.013l-0.043-42.493c-0.53-0.021-1.053-0.084-1.592-0.083c-0.541,0-1.065,0.063-1.601,0.084l0.037,42.497
					l-15.274,0.013c-0.425-11.933-5.39-22.722-13.277-30.639c-0.776,0.727-1.524,1.485-2.25,2.268
					c7.302,7.34,11.908,17.326,12.33,28.376l-24.022,0.02c-0.021,0.536-0.084,1.062-0.078,1.602
					c-0.002,0.539,0.063,1.061,0.082,1.596l24.022-0.022c-0.399,11.049-4.989,21.047-12.278,28.396
					c0.726,0.783,1.478,1.539,2.258,2.268c7.869-7.933,12.813-18.734,13.218-30.664l15.276-0.018l0.039,42.501
					c0.535,0.018,1.06,0.079,1.601,0.077c0.534-0.001,1.062-0.063,1.596-0.082l-0.039-42.496l15.275-0.017
					c0.426,11.933,5.393,22.724,13.276,30.645c0.78-0.729,1.526-1.484,2.252-2.269c-7.306-7.342-11.912-17.329-12.336-28.379
					l24.028-0.02C59.255,137.563,59.315,137.04,59.317,136.502z"/>
				
					<path fill="none" stroke="#231F20" stroke-width="2.5539" stroke-linecap="round" stroke-linejoin="round" stroke-miterlimit="10" d="
					M19.101,143.705c-0.004,2.125-1.729,3.845-3.854,3.843c-2.125-0.004-3.845-1.73-3.843-3.854"/>
				<circle fill="#231F20" cx="26.537" cy="130.229" r="4.065"/>
				<circle fill="#231F20" cx="5.123" cy="130.194" r="4.065"/>
			</g>
			<g>
				<rect x="84.641" y="74.5" fill="#96E072" width="123" height="123"/>
				<rect x="84.641" y="204.5" fill="#96E072" width="123" height="123"/>
			</g>
			<g>
				<path fill="#FFFFFF" d="M185.63,239.932c-1.483-0.332-2.957,0.604-3.289,2.086l-2.892,12.924l-12.57-14.148
					c-1.011-1.137-2.752-1.24-3.89-0.229c-1.139,1.012-1.239,2.752-0.229,3.889l7.736,8.709l-9.2,10.355l-9.199-10.355l7.735-8.709
					c1.011-1.137,0.908-2.879-0.229-3.889c-1.138-1.012-2.877-0.908-3.889,0.229l-7.303,8.221l-6.898-7.766
					c-1.011-1.139-2.751-1.24-3.89-0.23s-1.241,2.752-0.229,3.891l7.334,8.256l-9.2,10.354l-9.198-10.354l8.069-9.084
					c1.012-1.139,0.907-2.879-0.229-3.891c-1.138-1.012-2.879-0.907-3.89,0.229l-9.66,10.875c-0.008,0.008-0.014,0.015-0.021,0.021
					l-2.681,3.02l-2.754-12.313c-0.332-1.482-1.807-2.418-3.29-2.086s-2.419,1.807-2.087,3.289l12.15,54.318
					c0.287,1.281,1.426,2.152,2.687,2.152c0.199,0,0.401-0.021,0.604-0.066c1.483-0.332,2.419-1.805,2.087-3.289l-1.424-6.365
					l7.573,8.527c0.005,0.004,0.011,0.008,0.014,0.012c0.042,0.047,0.089,0.092,0.135,0.137c0.025,0.025,0.051,0.053,0.076,0.074
					c0.003,0.002,0.005,0.006,0.007,0.006c0.067,0.063,0.137,0.115,0.206,0.168c0.021,0.018,0.046,0.029,0.065,0.043
					c0.057,0.039,0.11,0.076,0.169,0.109c0.025,0.016,0.054,0.029,0.081,0.043c0.055,0.029,0.109,0.059,0.165,0.084
					c0.027,0.012,0.057,0.023,0.082,0.035c0.061,0.023,0.118,0.047,0.179,0.066c0.025,0.01,0.052,0.018,0.079,0.023
					c0.063,0.021,0.129,0.037,0.192,0.055c0.022,0.004,0.045,0.01,0.067,0.014c0.074,0.016,0.148,0.027,0.227,0.035
					c0.015,0.002,0.025,0.004,0.041,0.006c0.091,0.01,0.183,0.016,0.272,0.016c0.026,0,0.055-0.004,0.08-0.006
					c0.062,0,0.121-0.002,0.181-0.008c0.038-0.004,0.076-0.012,0.113-0.016c0.051-0.008,0.102-0.016,0.149-0.023
					c0.04-0.008,0.079-0.018,0.118-0.027c0.048-0.01,0.094-0.021,0.142-0.037c0.041-0.012,0.081-0.021,0.119-0.039
					c0.045-0.014,0.088-0.029,0.131-0.047c0.042-0.018,0.083-0.035,0.124-0.055c0.038-0.018,0.076-0.037,0.114-0.057
					c0.043-0.023,0.087-0.045,0.128-0.07c0.031-0.018,0.063-0.039,0.093-0.059c0.167-0.107,0.323-0.234,0.469-0.381
					c0.025-0.027,0.056-0.057,0.079-0.082c0.007-0.008,0.016-0.014,0.021-0.021l10.825-12.188l10.824,12.188
					c0.006,0.006,0.012,0.014,0.018,0.018c0.033,0.039,0.069,0.072,0.105,0.107c0.035,0.035,0.068,0.07,0.104,0.104
					c0.001,0,0.002,0,0.003,0c0.046,0.043,0.097,0.08,0.145,0.119c0.059,0.043,0.115,0.084,0.176,0.123
					c0.037,0.024,0.074,0.051,0.113,0.073c0.038,0.021,0.077,0.041,0.116,0.063c0.042,0.021,0.084,0.043,0.127,0.063
					c0.037,0.02,0.076,0.033,0.114,0.05c0.046,0.019,0.093,0.034,0.139,0.054c0.039,0.012,0.076,0.021,0.114,0.035
					c0.05,0.016,0.099,0.025,0.146,0.038c0.038,0.011,0.075,0.019,0.114,0.024c0.051,0.012,0.104,0.02,0.154,0.023
					c0.036,0.004,0.073,0.012,0.108,0.016c0.063,0.006,0.123,0.008,0.186,0.01c0.025,0.002,0.052,0.004,0.076,0.004
					c0.092,0,0.185-0.006,0.274-0.016c0.013,0,0.022-0.002,0.035-0.004c0.078-0.012,0.154-0.021,0.231-0.037
					c0.021-0.004,0.04-0.008,0.062-0.014c0.067-0.018,0.136-0.033,0.203-0.055c0.021-0.008,0.046-0.014,0.068-0.021
					c0.063-0.022,0.126-0.047,0.188-0.071c0.022-0.011,0.048-0.021,0.07-0.028c0.063-0.029,0.122-0.062,0.183-0.093
					c0.021-0.012,0.044-0.022,0.065-0.034c0.067-0.041,0.135-0.084,0.198-0.13c0.012-0.01,0.022-0.016,0.036-0.024
					c0.071-0.051,0.143-0.106,0.21-0.168c0.004-0.002,0.007-0.006,0.011-0.01c0.017-0.017,0.031-0.031,0.047-0.048
					c0.058-0.053,0.112-0.106,0.163-0.163c0.003-0.005,0.006-0.007,0.011-0.011l8.486-9.554l-1.653,7.392
					c-0.331,1.483,0.604,2.957,2.087,3.289c0.203,0.045,0.404,0.065,0.604,0.065c1.261,0,2.397-0.871,2.686-2.151l12.151-54.317
					C188.049,241.736,187.115,240.264,185.63,239.932z M177.967,261.568l-3.7,16.546l-9.285-10.451l9.2-10.354L177.967,261.568z
					 M123.103,277.5l-3.702-16.547l3.241-3.646l9.199,10.355L123.103,277.5z M135.526,271.809l9.199,10.355l-9.199,10.357
					l-9.198-10.357L135.526,271.809z M139.211,267.663l9.2-10.354l9.198,10.354l-9.198,10.354L139.211,267.663z M161.295,271.809
					l9.2,10.357l-9.199,10.355l-9.199-10.357L161.295,271.809z"/>
				<g>
					<path fill="#2B388F" d="M190.431,246.745h-83.355c-2.41,0-4.363-1.953-4.363-4.363c0-2.412,1.953-4.364,4.363-4.364h83.355
						c2.409,0,4.363,1.952,4.363,4.364C194.795,244.792,192.841,246.745,190.431,246.745z"/>
				</g>
			</g>
		</g>
	</g>
	<g>
		<path fill="#9ACB72" d="M79.726,186.227h5.864c0.205,0,0.404,0.063,0.572,0.181l5.111,3.571c0.602,0.42,1.44,0.42,2.043,0
			l5.111-3.571c0.168-0.117,0.367-0.181,0.572-0.181h43.82v-72.203c0,0-43.2,0-67.336,0l-5.61,3.79
			c-0.209,0.142-0.537,0.225-0.885,0.225c-0.35,0-0.68-0.083-0.888-0.225l-5.611-3.79c-2.092,0-3.335,0-3.437,0
			c-5.261,0-9.521,4.263-9.521,9.521v218.289c0,5.26,4.262,9.521,9.521,9.521c0.202,0,83.767,0,83.767,0v-10.797H98.843l-4.38,3.059
			c-0.639,0.445-1.388,0.682-2.167,0.682c-0.778,0-1.527-0.236-2.166-0.682l-4.38-3.059h-6.023c-5.804,0-11.521-4.722-11.521-10.521
			V196.748C68.204,190.945,73.923,186.227,79.726,186.227z"/>
		<path fill="#9ACB72" d="M70.104,354.859l-6.47-4.369c-0.253-0.172-0.294-0.4-0.105-0.59c0.188-0.191,0.572-0.313,0.992-0.313
			h12.938c0.42,0,0.804,0.121,0.992,0.313c0.078,0.078,0.116,0.166,0.116,0.252c0,0.119-0.075,0.238-0.225,0.338l-6.467,4.369
			c-0.209,0.141-0.537,0.225-0.885,0.225C70.642,355.084,70.312,355,70.104,354.859z"/>
	</g>
	<rect x="37.882" y="46.049" fill="#ED5D80" width="75.171" height="63.106"/>
	<path fill="#ED5D80" d="M77.55,353.762l-4.379,3.059c-0.639,0.445-1.389,0.683-2.168,0.683c-0.778,0-1.526-0.235-2.166-0.683
		l-4.379-3.059h-6.024c-5.804,0-10.521-5.721-10.521-11.521v-219.29c0-5.802,4.719-10.521,10.521-10.521h3.864
		c0.205,0,0.404,0.063,0.572,0.18l5.111,3.572c0.602,0.42,1.44,0.42,2.043,0l5.11-3.572c0.169-0.117,0.369-0.18,0.574-0.18h45.82
		V40.227c0,0-81.9,0-82.768,0c-5.261,0-9.521,4.263-9.521,9.521v308.289c0,5.26,4.262,9.521,9.521,9.521c0.202,0,82.768,0,82.768,0
		v-13.798L77.55,353.762L77.55,353.762z"/>
	<polygon fill="#ED5D80" stroke="#ED5D80" stroke-width="5" stroke-miterlimit="10" points="61.4,63.187 83.534,75.966 61.4,88.745 
			"/>
	<g>
		<path fill="#FFC760" d="M152.674,188.895H99.184l-5.112,3.572c-0.479,0.334-1.036,0.5-1.594,0.5c-0.559,0-1.115-0.166-1.595-0.5
			l-5.11-3.572h-0.308c-1.052,0-4.691,0-5.559,0c-5.26,0-9.521,4.265-9.521,9.521v54.289c0,5.258,4.262,9.521,9.521,9.521
			c0.203,0,2.575,0,6.34,0l4.637,3.239c0.479,0.334,1.036,0.5,1.595,0.5c0.558,0,1.114-0.166,1.594-0.5l4.638-3.239
			c21.565,0,53.965,0,53.965,0L152.674,188.895L152.674,188.895z"/>
		<g>
			
				<line fill="none" stroke="#211F1F" stroke-width="7" stroke-linecap="round" stroke-linejoin="round" stroke-miterlimit="10" x1="107.594" y1="215.517" x2="107.594" y2="238.199"/>
			
				<polyline fill="none" stroke="#211F1F" stroke-width="7" stroke-linecap="round" stroke-linejoin="round" stroke-miterlimit="10" points="
				118.319,228.344 107.594,239.344 96.872,228.344 			"/>
		</g>
	</g>
	
		<polygon fill="#211F1F" stroke="#211F1F" stroke-width="5" stroke-linecap="round" stroke-linejoin="round" stroke-miterlimit="10" points="
		70.99,64.823 93.122,77.602 70.99,90.38 	"/>
	<g>
		<path fill="none" stroke="#211F1F" stroke-width="7" stroke-linecap="round" stroke-linejoin="round" stroke-miterlimit="10" d="
			M114.392,169.176H83.908c-1.62,0-2.934-1.313-2.934-2.934v-14.484"/>
		<path fill="none" stroke="#211F1F" stroke-width="7" stroke-linecap="round" stroke-linejoin="round" stroke-miterlimit="10" d="
			M83.908,138.825h30.483c1.618,0,2.934,1.313,2.934,2.934v14.483"/>
		<path fill="#211F1F" d="M120.277,168.061l-12.854-9.834c-0.503-0.384-1.175-0.445-1.733-0.161
			c-0.563,0.286-0.917,0.87-0.917,1.509v19.669c0,0.639,0.354,1.223,0.916,1.51c0.233,0.117,0.486,0.177,0.74,0.177
			c0.353,0,0.701-0.113,0.994-0.339l12.854-9.834c0.416-0.315,0.66-0.815,0.66-1.348
			C120.938,168.879,120.693,168.379,120.277,168.061z"/>
		<path fill="#211F1F" d="M77.969,138.061l12.853-9.836c0.504-0.384,1.176-0.445,1.736-0.161c0.562,0.286,0.916,0.87,0.916,1.509
			v19.67c0,0.639-0.354,1.223-0.916,1.509c-0.234,0.118-0.488,0.177-0.74,0.177c-0.354,0-0.703-0.114-0.995-0.338l-12.853-9.834
			c-0.417-0.317-0.662-0.817-0.662-1.348C77.308,138.878,77.553,138.379,77.969,138.061z"/>
	</g>
	<g>
		<g>
			<g>
				<path fill="#26A5DE" d="M142.823,113.911h53.49h13.411h0.307c1.052,0,4.692,0,5.559,0c5.261,0,9.521,4.263,9.521,9.521v53.289
					c0,5.258-4.262,9.521-9.521,9.521c-0.202,0-2.574,0-6.34,0h-12.462c-21.564,0-53.965,0-53.965,0V113.911L142.823,113.911z"/>
			</g>
		</g>
	</g>
	<text transform="matrix(1 0 0 1 171.3718 167.5664)" fill="#211F1F" font-family="'Nunito-ExtraBold'" font-size="41.5729">2</text>
	<path fill="#26A5DE" d="M137.95,125.07l6.525-5.831c0.256-0.229,0.597-0.265,0.881-0.096c0.285,0.17,0.466,0.515,0.466,0.894
		v11.661c0,0.379-0.181,0.724-0.466,0.894c-0.119,0.071-0.247,0.105-0.375,0.105c-0.181,0-0.357-0.067-0.506-0.201l-6.525-5.83
		c-0.211-0.188-0.335-0.484-0.335-0.798C137.615,125.555,137.74,125.258,137.95,125.07z"/>
	<g id="Layer_2">
	</g>
</g>
<g id="Layer_2_1_">
	<g>
		<path fill="#FFC760" d="M152.674,188.895h-53.49l-5.112,3.572c-0.479,0.334-1.036,0.5-1.594,0.5s-1.115-0.166-1.594-0.5
			l-5.111-3.572h-0.307c-1.052,0-4.692,0-5.559,0c-5.26,0-9.521,4.264-9.521,9.521v54.289c0,5.258,4.262,9.521,9.521,9.521
			c0.203,0,2.575,0,6.34,0l4.637,3.24c0.479,0.334,1.036,0.5,1.594,0.5s1.115-0.166,1.594-0.5l4.638-3.24
			c21.565,0,53.965,0,53.965,0V188.895z"/>
		<g>
			
				<line fill="none" stroke="#211F1F" stroke-width="7" stroke-linecap="round" stroke-linejoin="round" stroke-miterlimit="10" x1="107.594" y1="239.345" x2="107.594" y2="216.662"/>
			
				<polyline fill="none" stroke="#211F1F" stroke-width="7" stroke-linecap="round" stroke-linejoin="round" stroke-miterlimit="10" points="
				96.87,226.517 107.594,215.517 118.317,226.517 			"/>
		</g>
	</g>
	<g>
		<path fill="#FFC760" d="M152.674,264.895h-53.49l-5.112,3.572c-0.479,0.334-1.036,0.5-1.594,0.5s-1.115-0.166-1.594-0.5
			l-5.111-3.572h-0.307c-1.052,0-4.692,0-5.559,0c-5.26,0-9.521,4.264-9.521,9.521v54.289c0,5.258,4.262,9.521,9.521,9.521
			c0.203,0,2.575,0,6.34,0l4.637,3.24c0.479,0.334,1.036,0.5,1.594,0.5s1.115-0.166,1.594-0.5l4.638-3.24
			c21.565,0,53.965,0,53.965,0V264.895z"/>
		<g>
			
				<line fill="none" stroke="#211F1F" stroke-width="7" stroke-linecap="round" stroke-linejoin="round" stroke-miterlimit="10" x1="95.679" y1="303.432" x2="118.362" y2="303.432"/>
			
				<polyline fill="none" stroke="#211F1F" stroke-width="7" stroke-linecap="round" stroke-linejoin="round" stroke-miterlimit="10" points="
				108.508,292.707 119.508,303.432 108.508,314.154 			"/>
		</g>
	</g>
</g>
</svg>
